G04 #@! TF.GenerationSoftware,KiCad,Pcbnew,5.0.0-rc2-dev-unknown-5a90858~64~ubuntu16.04.1*
G04 #@! TF.CreationDate,2018-12-18T14:43:22-05:00*
G04 #@! TF.ProjectId,ferrofluid_display,666572726F666C7569645F646973706C,rev?*
G04 #@! TF.SameCoordinates,Original*
G04 #@! TF.FileFunction,Paste,Top*
G04 #@! TF.FilePolarity,Positive*
%FSLAX46Y46*%
G04 Gerber Fmt 4.6, Leading zero omitted, Abs format (unit mm)*
G04 Created by KiCad (PCBNEW 5.0.0-rc2-dev-unknown-5a90858~64~ubuntu16.04.1) date Tue Dec 18 14:43:22 2018*
%MOMM*%
%LPD*%
G01*
G04 APERTURE LIST*
%ADD10R,1.200000X1.200000*%
%ADD11R,0.500000X0.900000*%
%ADD12R,1.905000X0.533400*%
%ADD13R,0.533400X1.905000*%
%ADD14R,1.550000X0.600000*%
%ADD15R,2.600000X3.100000*%
G04 APERTURE END LIST*
D10*
X120885000Y-56808000D03*
X123085000Y-56808000D03*
X126260000Y-54903000D03*
X124060000Y-54903000D03*
X136885000Y-56808000D03*
X139085000Y-56808000D03*
X142260000Y-54903000D03*
X140060000Y-54903000D03*
X152885000Y-56808000D03*
X155085000Y-56808000D03*
X158260000Y-54903000D03*
X156060000Y-54903000D03*
X168885000Y-56808000D03*
X171085000Y-56808000D03*
X174260000Y-54903000D03*
X172060000Y-54903000D03*
X184885000Y-56808000D03*
X187085000Y-56808000D03*
X188060000Y-54903000D03*
X190260000Y-54903000D03*
X203085000Y-56808000D03*
X200885000Y-56808000D03*
X204060000Y-54903000D03*
X206260000Y-54903000D03*
X219085000Y-56808000D03*
X216885000Y-56808000D03*
X222260000Y-54903000D03*
X220060000Y-54903000D03*
X232885000Y-56808000D03*
X235085000Y-56808000D03*
X236060000Y-54903000D03*
X238260000Y-54903000D03*
X248885000Y-56808000D03*
X251085000Y-56808000D03*
X252060000Y-54903000D03*
X254260000Y-54903000D03*
X267085000Y-56808000D03*
X264885000Y-56808000D03*
X270260000Y-54903000D03*
X268060000Y-54903000D03*
X120885000Y-70808000D03*
X123085000Y-70808000D03*
X126260000Y-68903000D03*
X124060000Y-68903000D03*
X136885000Y-70808000D03*
X139085000Y-70808000D03*
X140060000Y-68903000D03*
X142260000Y-68903000D03*
X155085000Y-70808000D03*
X152885000Y-70808000D03*
X156060000Y-68903000D03*
X158260000Y-68903000D03*
X168885000Y-70808000D03*
X171085000Y-70808000D03*
X172060000Y-68903000D03*
X174260000Y-68903000D03*
X187085000Y-70808000D03*
X184885000Y-70808000D03*
X188060000Y-68903000D03*
X190260000Y-68903000D03*
X203085000Y-70808000D03*
X200885000Y-70808000D03*
X204060000Y-68903000D03*
X206260000Y-68903000D03*
X219085000Y-70808000D03*
X216885000Y-70808000D03*
X220060000Y-68903000D03*
X222260000Y-68903000D03*
X235085000Y-70808000D03*
X232885000Y-70808000D03*
X236060000Y-68903000D03*
X238260000Y-68903000D03*
X251085000Y-70808000D03*
X248885000Y-70808000D03*
X252060000Y-68903000D03*
X254260000Y-68903000D03*
X267085000Y-70808000D03*
X264885000Y-70808000D03*
X268060000Y-68903000D03*
X270260000Y-68903000D03*
X123085000Y-84808000D03*
X120885000Y-84808000D03*
X126260000Y-82903000D03*
X124060000Y-82903000D03*
X139085000Y-84808000D03*
X136885000Y-84808000D03*
X140060000Y-82903000D03*
X142260000Y-82903000D03*
X155085000Y-84808000D03*
X152885000Y-84808000D03*
X156060000Y-82903000D03*
X158260000Y-82903000D03*
X168885000Y-84808000D03*
X171085000Y-84808000D03*
X174260000Y-82903000D03*
X172060000Y-82903000D03*
X187085000Y-84808000D03*
X184885000Y-84808000D03*
X188060000Y-82903000D03*
X190260000Y-82903000D03*
X203085000Y-84808000D03*
X200885000Y-84808000D03*
X206260000Y-82903000D03*
X204060000Y-82903000D03*
X216885000Y-84808000D03*
X219085000Y-84808000D03*
X222260000Y-82903000D03*
X220060000Y-82903000D03*
X232885000Y-84808000D03*
X235085000Y-84808000D03*
X238260000Y-82903000D03*
X236060000Y-82903000D03*
X248885000Y-84808000D03*
X251085000Y-84808000D03*
X254260000Y-82903000D03*
X252060000Y-82903000D03*
X264885000Y-84808000D03*
X267085000Y-84808000D03*
X270260000Y-82903000D03*
X268060000Y-82903000D03*
X120885000Y-98808000D03*
X123085000Y-98808000D03*
X126260000Y-96903000D03*
X124060000Y-96903000D03*
X139085000Y-98808000D03*
X136885000Y-98808000D03*
X142260000Y-96903000D03*
X140060000Y-96903000D03*
X152885000Y-98808000D03*
X155085000Y-98808000D03*
X158260000Y-96903000D03*
X156060000Y-96903000D03*
X168885000Y-98808000D03*
X171085000Y-98808000D03*
X174260000Y-96903000D03*
X172060000Y-96903000D03*
X184885000Y-98808000D03*
X187085000Y-98808000D03*
X190260000Y-96903000D03*
X188060000Y-96903000D03*
X200885000Y-98808000D03*
X203085000Y-98808000D03*
X206260000Y-96903000D03*
X204060000Y-96903000D03*
X216885000Y-98808000D03*
X219085000Y-98808000D03*
X220060000Y-96903000D03*
X222260000Y-96903000D03*
X235085000Y-98808000D03*
X232885000Y-98808000D03*
X236060000Y-96903000D03*
X238260000Y-96903000D03*
X251085000Y-98808000D03*
X248885000Y-98808000D03*
X252060000Y-96903000D03*
X254260000Y-96903000D03*
X267085000Y-98808000D03*
X264885000Y-98808000D03*
X268060000Y-96903000D03*
X270260000Y-96903000D03*
X123085000Y-112808000D03*
X120885000Y-112808000D03*
X126260000Y-110903000D03*
X124060000Y-110903000D03*
X136885000Y-112808000D03*
X139085000Y-112808000D03*
X142260000Y-110903000D03*
X140060000Y-110903000D03*
X152885000Y-112808000D03*
X155085000Y-112808000D03*
X158260000Y-110903000D03*
X156060000Y-110903000D03*
X168885000Y-112808000D03*
X171085000Y-112808000D03*
X172060000Y-110903000D03*
X174260000Y-110903000D03*
X187085000Y-112808000D03*
X184885000Y-112808000D03*
X188060000Y-110903000D03*
X190260000Y-110903000D03*
X200885000Y-112808000D03*
X203085000Y-112808000D03*
X204060000Y-110903000D03*
X206260000Y-110903000D03*
X219085000Y-112808000D03*
X216885000Y-112808000D03*
X220060000Y-110903000D03*
X222260000Y-110903000D03*
X235085000Y-112808000D03*
X232885000Y-112808000D03*
X236060000Y-110903000D03*
X238260000Y-110903000D03*
X251085000Y-112808000D03*
X248885000Y-112808000D03*
X254260000Y-110903000D03*
X252060000Y-110903000D03*
X267085000Y-112808000D03*
X264885000Y-112808000D03*
X268060000Y-110903000D03*
X270260000Y-110903000D03*
X120885000Y-126808000D03*
X123085000Y-126808000D03*
X124060000Y-124903000D03*
X126260000Y-124903000D03*
X136885000Y-126808000D03*
X139085000Y-126808000D03*
X140060000Y-124903000D03*
X142260000Y-124903000D03*
X152885000Y-126808000D03*
X155085000Y-126808000D03*
X156060000Y-124903000D03*
X158260000Y-124903000D03*
X171085000Y-126808000D03*
X168885000Y-126808000D03*
X174260000Y-124903000D03*
X172060000Y-124903000D03*
X187085000Y-126808000D03*
X184885000Y-126808000D03*
X190260000Y-124903000D03*
X188060000Y-124903000D03*
X200885000Y-126808000D03*
X203085000Y-126808000D03*
X206260000Y-124903000D03*
X204060000Y-124903000D03*
X219085000Y-126808000D03*
X216885000Y-126808000D03*
X222260000Y-124903000D03*
X220060000Y-124903000D03*
X235085000Y-126808000D03*
X232885000Y-126808000D03*
X236060000Y-124903000D03*
X238260000Y-124903000D03*
X248885000Y-126808000D03*
X251085000Y-126808000D03*
X252060000Y-124903000D03*
X254260000Y-124903000D03*
X264885000Y-126808000D03*
X267085000Y-126808000D03*
X268060000Y-124903000D03*
X270260000Y-124903000D03*
X120885000Y-140808000D03*
X123085000Y-140808000D03*
X124060000Y-138903000D03*
X126260000Y-138903000D03*
X136885000Y-140808000D03*
X139085000Y-140808000D03*
X140060000Y-138903000D03*
X142260000Y-138903000D03*
X155085000Y-140808000D03*
X152885000Y-140808000D03*
X158260000Y-138903000D03*
X156060000Y-138903000D03*
X171085000Y-140808000D03*
X168885000Y-140808000D03*
X174260000Y-138903000D03*
X172060000Y-138903000D03*
X187085000Y-140808000D03*
X184885000Y-140808000D03*
X190260000Y-138903000D03*
X188060000Y-138903000D03*
X203085000Y-140808000D03*
X200885000Y-140808000D03*
X206260000Y-138903000D03*
X204060000Y-138903000D03*
X216885000Y-140808000D03*
X219085000Y-140808000D03*
X222260000Y-138903000D03*
X220060000Y-138903000D03*
X235085000Y-140808000D03*
X232885000Y-140808000D03*
X238260000Y-138903000D03*
X236060000Y-138903000D03*
X251085000Y-140808000D03*
X248885000Y-140808000D03*
X254260000Y-138903000D03*
X252060000Y-138903000D03*
X267085000Y-140808000D03*
X264885000Y-140808000D03*
X270260000Y-138903000D03*
X268060000Y-138903000D03*
X123085000Y-154808000D03*
X120885000Y-154808000D03*
X124060000Y-152903000D03*
X126260000Y-152903000D03*
X139085000Y-154808000D03*
X136885000Y-154808000D03*
X142260000Y-152903000D03*
X140060000Y-152903000D03*
X155085000Y-154808000D03*
X152885000Y-154808000D03*
X158260000Y-152903000D03*
X156060000Y-152903000D03*
X171085000Y-154808000D03*
X168885000Y-154808000D03*
X174260000Y-152903000D03*
X172060000Y-152903000D03*
X187085000Y-154808000D03*
X184885000Y-154808000D03*
X190260000Y-152903000D03*
X188060000Y-152903000D03*
X200885000Y-154808000D03*
X203085000Y-154808000D03*
X204060000Y-152903000D03*
X206260000Y-152903000D03*
X216885000Y-154808000D03*
X219085000Y-154808000D03*
X220060000Y-152903000D03*
X222260000Y-152903000D03*
X232885000Y-154808000D03*
X235085000Y-154808000D03*
X236060000Y-152903000D03*
X238260000Y-152903000D03*
X248885000Y-154808000D03*
X251085000Y-154808000D03*
X252060000Y-152903000D03*
X254260000Y-152903000D03*
X267085000Y-154808000D03*
X264885000Y-154808000D03*
X268060000Y-152903000D03*
X270260000Y-152903000D03*
X120885000Y-168808000D03*
X123085000Y-168808000D03*
X124060000Y-166903000D03*
X126260000Y-166903000D03*
X136885000Y-168808000D03*
X139085000Y-168808000D03*
X140060000Y-166903000D03*
X142260000Y-166903000D03*
X152885000Y-168808000D03*
X155085000Y-168808000D03*
X156060000Y-166903000D03*
X158260000Y-166903000D03*
X168885000Y-168808000D03*
X171085000Y-168808000D03*
X174260000Y-166903000D03*
X172060000Y-166903000D03*
X187085000Y-168808000D03*
X184885000Y-168808000D03*
X190260000Y-166903000D03*
X188060000Y-166903000D03*
X203085000Y-168808000D03*
X200885000Y-168808000D03*
X206260000Y-166903000D03*
X204060000Y-166903000D03*
X219085000Y-168808000D03*
X216885000Y-168808000D03*
X222260000Y-166903000D03*
X220060000Y-166903000D03*
X235085000Y-168808000D03*
X232885000Y-168808000D03*
X238260000Y-166903000D03*
X236060000Y-166903000D03*
X251085000Y-168808000D03*
X248885000Y-168808000D03*
X254260000Y-166903000D03*
X252060000Y-166903000D03*
X267085000Y-168808000D03*
X264885000Y-168808000D03*
X270260000Y-166903000D03*
X268060000Y-166903000D03*
X123085000Y-182808000D03*
X120885000Y-182808000D03*
X126260000Y-180903000D03*
X124060000Y-180903000D03*
X139085000Y-182808000D03*
X136885000Y-182808000D03*
X140060000Y-180903000D03*
X142260000Y-180903000D03*
X152885000Y-182808000D03*
X155085000Y-182808000D03*
X156060000Y-180903000D03*
X158260000Y-180903000D03*
X168885000Y-182808000D03*
X171085000Y-182808000D03*
X172060000Y-180903000D03*
X174260000Y-180903000D03*
X184885000Y-182808000D03*
X187085000Y-182808000D03*
X188060000Y-180903000D03*
X190260000Y-180903000D03*
X200885000Y-182808000D03*
X203085000Y-182808000D03*
X206260000Y-180903000D03*
X204060000Y-180903000D03*
X216885000Y-182808000D03*
X219085000Y-182808000D03*
X220060000Y-180903000D03*
X222260000Y-180903000D03*
X232885000Y-182808000D03*
X235085000Y-182808000D03*
X236060000Y-180903000D03*
X238260000Y-180903000D03*
X248885000Y-182808000D03*
X251085000Y-182808000D03*
X252060000Y-180903000D03*
X254260000Y-180903000D03*
X264885000Y-182808000D03*
X267085000Y-182808000D03*
X270260000Y-180903000D03*
X268060000Y-180903000D03*
D11*
X125045000Y-56808000D03*
X126545000Y-56808000D03*
X122259762Y-55030500D03*
X120759762Y-55030500D03*
X141045000Y-56808000D03*
X142545000Y-56808000D03*
X138259762Y-55030500D03*
X136759762Y-55030500D03*
X157045000Y-56808000D03*
X158545000Y-56808000D03*
X154259762Y-55030500D03*
X152759762Y-55030500D03*
X173045000Y-56808000D03*
X174545000Y-56808000D03*
X170259762Y-55030500D03*
X168759762Y-55030500D03*
X189045000Y-56808000D03*
X190545000Y-56808000D03*
X186259762Y-55030500D03*
X184759762Y-55030500D03*
X205045000Y-56808000D03*
X206545000Y-56808000D03*
X202259762Y-55030500D03*
X200759762Y-55030500D03*
X221045000Y-56808000D03*
X222545000Y-56808000D03*
X218259762Y-55030500D03*
X216759762Y-55030500D03*
X237045000Y-56808000D03*
X238545000Y-56808000D03*
X234259762Y-55030500D03*
X232759762Y-55030500D03*
X254545000Y-56808000D03*
X253045000Y-56808000D03*
X248759762Y-55030500D03*
X250259762Y-55030500D03*
X270545000Y-56808000D03*
X269045000Y-56808000D03*
X264759762Y-55030500D03*
X266259762Y-55030500D03*
X126545000Y-70808000D03*
X125045000Y-70808000D03*
X122259762Y-69030500D03*
X120759762Y-69030500D03*
X141045000Y-70808000D03*
X142545000Y-70808000D03*
X138259762Y-69030500D03*
X136759762Y-69030500D03*
X157045000Y-70808000D03*
X158545000Y-70808000D03*
X152759762Y-69030500D03*
X154259762Y-69030500D03*
X173045000Y-70808000D03*
X174545000Y-70808000D03*
X170259762Y-69030500D03*
X168759762Y-69030500D03*
X189045000Y-70808000D03*
X190545000Y-70808000D03*
X184759762Y-69030500D03*
X186259762Y-69030500D03*
X205045000Y-70808000D03*
X206545000Y-70808000D03*
X202259762Y-69030500D03*
X200759762Y-69030500D03*
X221045000Y-70808000D03*
X222545000Y-70808000D03*
X218259762Y-69030500D03*
X216759762Y-69030500D03*
X237045000Y-70808000D03*
X238545000Y-70808000D03*
X234259762Y-69030500D03*
X232759762Y-69030500D03*
X253045000Y-70808000D03*
X254545000Y-70808000D03*
X250259762Y-69030500D03*
X248759762Y-69030500D03*
X270545000Y-70808000D03*
X269045000Y-70808000D03*
X264759762Y-69030500D03*
X266259762Y-69030500D03*
X126545000Y-84808000D03*
X125045000Y-84808000D03*
X120759762Y-83030500D03*
X122259762Y-83030500D03*
X142545000Y-84808000D03*
X141045000Y-84808000D03*
X136759762Y-83030500D03*
X138259762Y-83030500D03*
X158545000Y-84808000D03*
X157045000Y-84808000D03*
X152759762Y-83030500D03*
X154259762Y-83030500D03*
X174545000Y-84808000D03*
X173045000Y-84808000D03*
X168759762Y-83030500D03*
X170259762Y-83030500D03*
X190545000Y-84808000D03*
X189045000Y-84808000D03*
X184759762Y-83030500D03*
X186259762Y-83030500D03*
X206545000Y-84808000D03*
X205045000Y-84808000D03*
X200759762Y-83030500D03*
X202259762Y-83030500D03*
X222545000Y-84808000D03*
X221045000Y-84808000D03*
X216759762Y-83030500D03*
X218259762Y-83030500D03*
X238545000Y-84808000D03*
X237045000Y-84808000D03*
X232759762Y-83030500D03*
X234259762Y-83030500D03*
X254545000Y-84808000D03*
X253045000Y-84808000D03*
X248759762Y-83030500D03*
X250259762Y-83030500D03*
X269045000Y-84808000D03*
X270545000Y-84808000D03*
X264759762Y-83030500D03*
X266259762Y-83030500D03*
X126545000Y-98808000D03*
X125045000Y-98808000D03*
X120759762Y-97030500D03*
X122259762Y-97030500D03*
X142545000Y-98808000D03*
X141045000Y-98808000D03*
X136759762Y-97030500D03*
X138259762Y-97030500D03*
X158545000Y-98808000D03*
X157045000Y-98808000D03*
X152759762Y-97030500D03*
X154259762Y-97030500D03*
X174545000Y-98808000D03*
X173045000Y-98808000D03*
X168759762Y-97030500D03*
X170259762Y-97030500D03*
X190545000Y-98808000D03*
X189045000Y-98808000D03*
X184759762Y-97030500D03*
X186259762Y-97030500D03*
X205045000Y-98808000D03*
X206545000Y-98808000D03*
X200759762Y-97030500D03*
X202259762Y-97030500D03*
X222545000Y-98808000D03*
X221045000Y-98808000D03*
X218259762Y-97030500D03*
X216759762Y-97030500D03*
X238545000Y-98808000D03*
X237045000Y-98808000D03*
X232759762Y-97030500D03*
X234259762Y-97030500D03*
X253045000Y-98808000D03*
X254545000Y-98808000D03*
X250259762Y-97030500D03*
X248759762Y-97030500D03*
X269045000Y-98808000D03*
X270545000Y-98808000D03*
X266259762Y-97030500D03*
X264759762Y-97030500D03*
X125045000Y-112808000D03*
X126545000Y-112808000D03*
X122259762Y-111030500D03*
X120759762Y-111030500D03*
X141045000Y-112808000D03*
X142545000Y-112808000D03*
X138259762Y-111030500D03*
X136759762Y-111030500D03*
X158545000Y-112808000D03*
X157045000Y-112808000D03*
X152759762Y-111030500D03*
X154259762Y-111030500D03*
X173045000Y-112808000D03*
X174545000Y-112808000D03*
X170259762Y-111030500D03*
X168759762Y-111030500D03*
X189045000Y-112808000D03*
X190545000Y-112808000D03*
X186259762Y-111030500D03*
X184759762Y-111030500D03*
X205045000Y-112808000D03*
X206545000Y-112808000D03*
X202259762Y-111030500D03*
X200759762Y-111030500D03*
X221045000Y-112808000D03*
X222545000Y-112808000D03*
X218259762Y-111030500D03*
X216759762Y-111030500D03*
X237045000Y-112808000D03*
X238545000Y-112808000D03*
X234259762Y-111030500D03*
X232759762Y-111030500D03*
X253045000Y-112808000D03*
X254545000Y-112808000D03*
X250259762Y-111030500D03*
X248759762Y-111030500D03*
X269045000Y-112808000D03*
X270545000Y-112808000D03*
X266259762Y-111030500D03*
X264759762Y-111030500D03*
X126545000Y-126808000D03*
X125045000Y-126808000D03*
X122259762Y-125030500D03*
X120759762Y-125030500D03*
X142545000Y-126808000D03*
X141045000Y-126808000D03*
X138259762Y-125030500D03*
X136759762Y-125030500D03*
X157045000Y-126808000D03*
X158545000Y-126808000D03*
X154259762Y-125030500D03*
X152759762Y-125030500D03*
X173045000Y-126808000D03*
X174545000Y-126808000D03*
X170259762Y-125030500D03*
X168759762Y-125030500D03*
X189045000Y-126808000D03*
X190545000Y-126808000D03*
X184759762Y-125030500D03*
X186259762Y-125030500D03*
X206545000Y-126808000D03*
X205045000Y-126808000D03*
X202259762Y-125030500D03*
X200759762Y-125030500D03*
X221045000Y-126808000D03*
X222545000Y-126808000D03*
X218259762Y-125030500D03*
X216759762Y-125030500D03*
X237045000Y-126808000D03*
X238545000Y-126808000D03*
X234259762Y-125030500D03*
X232759762Y-125030500D03*
X253045000Y-126808000D03*
X254545000Y-126808000D03*
X250259762Y-125030500D03*
X248759762Y-125030500D03*
X269045000Y-126808000D03*
X270545000Y-126808000D03*
X264759762Y-125030500D03*
X266259762Y-125030500D03*
X126545000Y-140808000D03*
X125045000Y-140808000D03*
X120759762Y-139030500D03*
X122259762Y-139030500D03*
X142545000Y-140808000D03*
X141045000Y-140808000D03*
X136759762Y-139030500D03*
X138259762Y-139030500D03*
X158545000Y-140808000D03*
X157045000Y-140808000D03*
X152759762Y-139030500D03*
X154259762Y-139030500D03*
X174545000Y-140808000D03*
X173045000Y-140808000D03*
X168759762Y-139030500D03*
X170259762Y-139030500D03*
X190545000Y-140808000D03*
X189045000Y-140808000D03*
X184759762Y-139030500D03*
X186259762Y-139030500D03*
X206545000Y-140808000D03*
X205045000Y-140808000D03*
X200759762Y-139030500D03*
X202259762Y-139030500D03*
X222545000Y-140808000D03*
X221045000Y-140808000D03*
X216759762Y-139030500D03*
X218259762Y-139030500D03*
X238545000Y-140808000D03*
X237045000Y-140808000D03*
X232759762Y-139030500D03*
X234259762Y-139030500D03*
X254545000Y-140808000D03*
X253045000Y-140808000D03*
X248759762Y-139030500D03*
X250259762Y-139030500D03*
X270545000Y-140808000D03*
X269045000Y-140808000D03*
X266259762Y-139030500D03*
X264759762Y-139030500D03*
X126545000Y-154808000D03*
X125045000Y-154808000D03*
X120759762Y-153030500D03*
X122259762Y-153030500D03*
X142545000Y-154808000D03*
X141045000Y-154808000D03*
X138259762Y-153030500D03*
X136759762Y-153030500D03*
X158545000Y-154808000D03*
X157045000Y-154808000D03*
X152759762Y-153030500D03*
X154259762Y-153030500D03*
X174545000Y-154808000D03*
X173045000Y-154808000D03*
X168759762Y-153030500D03*
X170259762Y-153030500D03*
X190545000Y-154808000D03*
X189045000Y-154808000D03*
X184759762Y-153030500D03*
X186259762Y-153030500D03*
X206545000Y-154808000D03*
X205045000Y-154808000D03*
X200759762Y-153030500D03*
X202259762Y-153030500D03*
X222545000Y-154808000D03*
X221045000Y-154808000D03*
X216759762Y-153030500D03*
X218259762Y-153030500D03*
X238545000Y-154808000D03*
X237045000Y-154808000D03*
X232759762Y-153030500D03*
X234259762Y-153030500D03*
X253045000Y-154808000D03*
X254545000Y-154808000D03*
X250259762Y-153030500D03*
X248759762Y-153030500D03*
X269045000Y-154808000D03*
X270545000Y-154808000D03*
X266259762Y-153030500D03*
X264759762Y-153030500D03*
X126545000Y-168808000D03*
X125045000Y-168808000D03*
X122259762Y-167030500D03*
X120759762Y-167030500D03*
X141045000Y-168808000D03*
X142545000Y-168808000D03*
X138259762Y-167030500D03*
X136759762Y-167030500D03*
X157045000Y-168808000D03*
X158545000Y-168808000D03*
X154259762Y-167030500D03*
X152759762Y-167030500D03*
X173045000Y-168808000D03*
X174545000Y-168808000D03*
X170259762Y-167030500D03*
X168759762Y-167030500D03*
X189045000Y-168808000D03*
X190545000Y-168808000D03*
X186259762Y-167030500D03*
X184759762Y-167030500D03*
X205045000Y-168808000D03*
X206545000Y-168808000D03*
X202259762Y-167030500D03*
X200759762Y-167030500D03*
X221045000Y-168808000D03*
X222545000Y-168808000D03*
X216759762Y-167030500D03*
X218259762Y-167030500D03*
X238545000Y-168808000D03*
X237045000Y-168808000D03*
X232759762Y-167030500D03*
X234259762Y-167030500D03*
X254545000Y-168808000D03*
X253045000Y-168808000D03*
X250259762Y-167030500D03*
X248759762Y-167030500D03*
X269045000Y-168808000D03*
X270545000Y-168808000D03*
X266259762Y-167030500D03*
X264759762Y-167030500D03*
X125045000Y-182808000D03*
X126545000Y-182808000D03*
X120759762Y-181030500D03*
X122259762Y-181030500D03*
X141045000Y-182808000D03*
X142545000Y-182808000D03*
X138259762Y-181030500D03*
X136759762Y-181030500D03*
X157045000Y-182808000D03*
X158545000Y-182808000D03*
X152759762Y-181030500D03*
X154259762Y-181030500D03*
X173045000Y-182808000D03*
X174545000Y-182808000D03*
X170259762Y-181030500D03*
X168759762Y-181030500D03*
X189045000Y-182808000D03*
X190545000Y-182808000D03*
X186259762Y-181030500D03*
X184759762Y-181030500D03*
X205045000Y-182808000D03*
X206545000Y-182808000D03*
X202259762Y-181030500D03*
X200759762Y-181030500D03*
X221045000Y-182808000D03*
X222545000Y-182808000D03*
X218259762Y-181030500D03*
X216759762Y-181030500D03*
X237045000Y-182808000D03*
X238545000Y-182808000D03*
X234259762Y-181030500D03*
X232759762Y-181030500D03*
X253045000Y-182808000D03*
X254545000Y-182808000D03*
X250259762Y-181030500D03*
X248759762Y-181030500D03*
X269045000Y-182808000D03*
X270545000Y-182808000D03*
X266259762Y-181030500D03*
X264759762Y-181030500D03*
D12*
X278498100Y-180555000D03*
X278498100Y-181825000D03*
X278498100Y-183095000D03*
X278498100Y-184365000D03*
X278498100Y-185635000D03*
X278498100Y-186905000D03*
X278498100Y-188175000D03*
X278498100Y-189445000D03*
X283501900Y-189445000D03*
X283501900Y-188175000D03*
X283501900Y-186905000D03*
X283501900Y-185635000D03*
X283501900Y-184365000D03*
X283501900Y-183095000D03*
X283501900Y-181825000D03*
X283501900Y-180555000D03*
X110498100Y-65299001D03*
X110498100Y-64029001D03*
X110498100Y-62759001D03*
X110498100Y-61489001D03*
X110498100Y-60219001D03*
X110498100Y-58949001D03*
X110498100Y-57679001D03*
X110498100Y-56409001D03*
X115501900Y-56409001D03*
X115501900Y-57679001D03*
X115501900Y-58949001D03*
X115501900Y-60219001D03*
X115501900Y-61489001D03*
X115501900Y-62759001D03*
X115501900Y-64029001D03*
X115501900Y-65299001D03*
D13*
X199555000Y-50501900D03*
X200825000Y-50501900D03*
X202095000Y-50501900D03*
X203365000Y-50501900D03*
X204635000Y-50501900D03*
X205905000Y-50501900D03*
X207175000Y-50501900D03*
X208445000Y-50501900D03*
X208445000Y-45498100D03*
X207175000Y-45498100D03*
X205905000Y-45498100D03*
X204635000Y-45498100D03*
X203365000Y-45498100D03*
X202095000Y-45498100D03*
X200825000Y-45498100D03*
X199555000Y-45498100D03*
D12*
X283501900Y-56555000D03*
X283501900Y-57825000D03*
X283501900Y-59095000D03*
X283501900Y-60365000D03*
X283501900Y-61635000D03*
X283501900Y-62905000D03*
X283501900Y-64175000D03*
X283501900Y-65445000D03*
X278498100Y-65445000D03*
X278498100Y-64175000D03*
X278498100Y-62905000D03*
X278498100Y-61635000D03*
X278498100Y-60365000D03*
X278498100Y-59095000D03*
X278498100Y-57825000D03*
X278498100Y-56555000D03*
X115501900Y-133445000D03*
X115501900Y-132175000D03*
X115501900Y-130905000D03*
X115501900Y-129635000D03*
X115501900Y-128365000D03*
X115501900Y-127095000D03*
X115501900Y-125825000D03*
X115501900Y-124555000D03*
X110498100Y-124555000D03*
X110498100Y-125825000D03*
X110498100Y-127095000D03*
X110498100Y-128365000D03*
X110498100Y-129635000D03*
X110498100Y-130905000D03*
X110498100Y-132175000D03*
X110498100Y-133445000D03*
D13*
X209645000Y-198501900D03*
X208375000Y-198501900D03*
X207105000Y-198501900D03*
X205835000Y-198501900D03*
X204565000Y-198501900D03*
X203295000Y-198501900D03*
X202025000Y-198501900D03*
X200755000Y-198501900D03*
X200755000Y-193498100D03*
X202025000Y-193498100D03*
X203295000Y-193498100D03*
X204565000Y-193498100D03*
X205835000Y-193498100D03*
X207105000Y-193498100D03*
X208375000Y-193498100D03*
X209645000Y-193498100D03*
X167955000Y-50701900D03*
X169225000Y-50701900D03*
X170495000Y-50701900D03*
X171765000Y-50701900D03*
X173035000Y-50701900D03*
X174305000Y-50701900D03*
X175575000Y-50701900D03*
X176845000Y-50701900D03*
X176845000Y-45698100D03*
X175575000Y-45698100D03*
X174305000Y-45698100D03*
X173035000Y-45698100D03*
X171765000Y-45698100D03*
X170495000Y-45698100D03*
X169225000Y-45698100D03*
X167955000Y-45698100D03*
X183555000Y-45498100D03*
X184825000Y-45498100D03*
X186095000Y-45498100D03*
X187365000Y-45498100D03*
X188635000Y-45498100D03*
X189905000Y-45498100D03*
X191175000Y-45498100D03*
X192445000Y-45498100D03*
X192445000Y-50501900D03*
X191175000Y-50501900D03*
X189905000Y-50501900D03*
X188635000Y-50501900D03*
X187365000Y-50501900D03*
X186095000Y-50501900D03*
X184825000Y-50501900D03*
X183555000Y-50501900D03*
D12*
X278498100Y-70555000D03*
X278498100Y-71825000D03*
X278498100Y-73095000D03*
X278498100Y-74365000D03*
X278498100Y-75635000D03*
X278498100Y-76905000D03*
X278498100Y-78175000D03*
X278498100Y-79445000D03*
X283501900Y-79445000D03*
X283501900Y-78175000D03*
X283501900Y-76905000D03*
X283501900Y-75635000D03*
X283501900Y-74365000D03*
X283501900Y-73095000D03*
X283501900Y-71825000D03*
X283501900Y-70555000D03*
X110498100Y-147445000D03*
X110498100Y-146175000D03*
X110498100Y-144905000D03*
X110498100Y-143635000D03*
X110498100Y-142365000D03*
X110498100Y-141095000D03*
X110498100Y-139825000D03*
X110498100Y-138555000D03*
X115501900Y-138555000D03*
X115501900Y-139825000D03*
X115501900Y-141095000D03*
X115501900Y-142365000D03*
X115501900Y-143635000D03*
X115501900Y-144905000D03*
X115501900Y-146175000D03*
X115501900Y-147445000D03*
X278498100Y-140555000D03*
X278498100Y-141825000D03*
X278498100Y-143095000D03*
X278498100Y-144365000D03*
X278498100Y-145635000D03*
X278498100Y-146905000D03*
X278498100Y-148175000D03*
X278498100Y-149445000D03*
X283501900Y-149445000D03*
X283501900Y-148175000D03*
X283501900Y-146905000D03*
X283501900Y-145635000D03*
X283501900Y-144365000D03*
X283501900Y-143095000D03*
X283501900Y-141825000D03*
X283501900Y-140555000D03*
X110498100Y-79445000D03*
X110498100Y-78175000D03*
X110498100Y-76905000D03*
X110498100Y-75635000D03*
X110498100Y-74365000D03*
X110498100Y-73095000D03*
X110498100Y-71825000D03*
X110498100Y-70555000D03*
X115501900Y-70555000D03*
X115501900Y-71825000D03*
X115501900Y-73095000D03*
X115501900Y-74365000D03*
X115501900Y-75635000D03*
X115501900Y-76905000D03*
X115501900Y-78175000D03*
X115501900Y-79445000D03*
X278498100Y-97555000D03*
X278498100Y-98825000D03*
X278498100Y-100095000D03*
X278498100Y-101365000D03*
X278498100Y-102635000D03*
X278498100Y-103905000D03*
X278498100Y-105175000D03*
X278498100Y-106445000D03*
X283501900Y-106445000D03*
X283501900Y-105175000D03*
X283501900Y-103905000D03*
X283501900Y-102635000D03*
X283501900Y-101365000D03*
X283501900Y-100095000D03*
X283501900Y-98825000D03*
X283501900Y-97555000D03*
X283501900Y-84555000D03*
X283501900Y-85825000D03*
X283501900Y-87095000D03*
X283501900Y-88365000D03*
X283501900Y-89635000D03*
X283501900Y-90905000D03*
X283501900Y-92175000D03*
X283501900Y-93445000D03*
X278498100Y-93445000D03*
X278498100Y-92175000D03*
X278498100Y-90905000D03*
X278498100Y-89635000D03*
X278498100Y-88365000D03*
X278498100Y-87095000D03*
X278498100Y-85825000D03*
X278498100Y-84555000D03*
X115501900Y-163445000D03*
X115501900Y-162175000D03*
X115501900Y-160905000D03*
X115501900Y-159635000D03*
X115501900Y-158365000D03*
X115501900Y-157095000D03*
X115501900Y-155825000D03*
X115501900Y-154555000D03*
X110498100Y-154555000D03*
X110498100Y-155825000D03*
X110498100Y-157095000D03*
X110498100Y-158365000D03*
X110498100Y-159635000D03*
X110498100Y-160905000D03*
X110498100Y-162175000D03*
X110498100Y-163445000D03*
X283501900Y-154555000D03*
X283501900Y-155825000D03*
X283501900Y-157095000D03*
X283501900Y-158365000D03*
X283501900Y-159635000D03*
X283501900Y-160905000D03*
X283501900Y-162175000D03*
X283501900Y-163445000D03*
X278498100Y-163445000D03*
X278498100Y-162175000D03*
X278498100Y-160905000D03*
X278498100Y-159635000D03*
X278498100Y-158365000D03*
X278498100Y-157095000D03*
X278498100Y-155825000D03*
X278498100Y-154555000D03*
X115501900Y-92445000D03*
X115501900Y-91175000D03*
X115501900Y-89905000D03*
X115501900Y-88635000D03*
X115501900Y-87365000D03*
X115501900Y-86095000D03*
X115501900Y-84825000D03*
X115501900Y-83555000D03*
X110498100Y-83555000D03*
X110498100Y-84825000D03*
X110498100Y-86095000D03*
X110498100Y-87365000D03*
X110498100Y-88635000D03*
X110498100Y-89905000D03*
X110498100Y-91175000D03*
X110498100Y-92445000D03*
X283501900Y-110555000D03*
X283501900Y-111825000D03*
X283501900Y-113095000D03*
X283501900Y-114365000D03*
X283501900Y-115635000D03*
X283501900Y-116905000D03*
X283501900Y-118175000D03*
X283501900Y-119445000D03*
X278498100Y-119445000D03*
X278498100Y-118175000D03*
X278498100Y-116905000D03*
X278498100Y-115635000D03*
X278498100Y-114365000D03*
X278498100Y-113095000D03*
X278498100Y-111825000D03*
X278498100Y-110555000D03*
X115501900Y-119445000D03*
X115501900Y-118175000D03*
X115501900Y-116905000D03*
X115501900Y-115635000D03*
X115501900Y-114365000D03*
X115501900Y-113095000D03*
X115501900Y-111825000D03*
X115501900Y-110555000D03*
X110498100Y-110555000D03*
X110498100Y-111825000D03*
X110498100Y-113095000D03*
X110498100Y-114365000D03*
X110498100Y-115635000D03*
X110498100Y-116905000D03*
X110498100Y-118175000D03*
X110498100Y-119445000D03*
D13*
X193045000Y-198501900D03*
X191775000Y-198501900D03*
X190505000Y-198501900D03*
X189235000Y-198501900D03*
X187965000Y-198501900D03*
X186695000Y-198501900D03*
X185425000Y-198501900D03*
X184155000Y-198501900D03*
X184155000Y-193498100D03*
X185425000Y-193498100D03*
X186695000Y-193498100D03*
X187965000Y-193498100D03*
X189235000Y-193498100D03*
X190505000Y-193498100D03*
X191775000Y-193498100D03*
X193045000Y-193498100D03*
D12*
X278498100Y-167555000D03*
X278498100Y-168825000D03*
X278498100Y-170095000D03*
X278498100Y-171365000D03*
X278498100Y-172635000D03*
X278498100Y-173905000D03*
X278498100Y-175175000D03*
X278498100Y-176445000D03*
X283501900Y-176445000D03*
X283501900Y-175175000D03*
X283501900Y-173905000D03*
X283501900Y-172635000D03*
X283501900Y-171365000D03*
X283501900Y-170095000D03*
X283501900Y-168825000D03*
X283501900Y-167555000D03*
X110498100Y-106445000D03*
X110498100Y-105175000D03*
X110498100Y-103905000D03*
X110498100Y-102635000D03*
X110498100Y-101365000D03*
X110498100Y-100095000D03*
X110498100Y-98825000D03*
X110498100Y-97555000D03*
X115501900Y-97555000D03*
X115501900Y-98825000D03*
X115501900Y-100095000D03*
X115501900Y-101365000D03*
X115501900Y-102635000D03*
X115501900Y-103905000D03*
X115501900Y-105175000D03*
X115501900Y-106445000D03*
X278498100Y-124555000D03*
X278498100Y-125825000D03*
X278498100Y-127095000D03*
X278498100Y-128365000D03*
X278498100Y-129635000D03*
X278498100Y-130905000D03*
X278498100Y-132175000D03*
X278498100Y-133445000D03*
X283501900Y-133445000D03*
X283501900Y-132175000D03*
X283501900Y-130905000D03*
X283501900Y-129635000D03*
X283501900Y-128365000D03*
X283501900Y-127095000D03*
X283501900Y-125825000D03*
X283501900Y-124555000D03*
X110498100Y-189445000D03*
X110498100Y-188175000D03*
X110498100Y-186905000D03*
X110498100Y-185635000D03*
X110498100Y-184365000D03*
X110498100Y-183095000D03*
X110498100Y-181825000D03*
X110498100Y-180555000D03*
X115501900Y-180555000D03*
X115501900Y-181825000D03*
X115501900Y-183095000D03*
X115501900Y-184365000D03*
X115501900Y-185635000D03*
X115501900Y-186905000D03*
X115501900Y-188175000D03*
X115501900Y-189445000D03*
X115501900Y-176445000D03*
X115501900Y-175175000D03*
X115501900Y-173905000D03*
X115501900Y-172635000D03*
X115501900Y-171365000D03*
X115501900Y-170095000D03*
X115501900Y-168825000D03*
X115501900Y-167555000D03*
X110498100Y-167555000D03*
X110498100Y-168825000D03*
X110498100Y-170095000D03*
X110498100Y-171365000D03*
X110498100Y-172635000D03*
X110498100Y-173905000D03*
X110498100Y-175175000D03*
X110498100Y-176445000D03*
D14*
X126156905Y-59142500D03*
X126156905Y-60412500D03*
X126156905Y-61682500D03*
X126156905Y-62952500D03*
X120756905Y-62952500D03*
X120756905Y-61682500D03*
X120756905Y-60412500D03*
X120756905Y-59142500D03*
D15*
X123456905Y-61047500D03*
X139456905Y-61047500D03*
D14*
X136756905Y-59142500D03*
X136756905Y-60412500D03*
X136756905Y-61682500D03*
X136756905Y-62952500D03*
X142156905Y-62952500D03*
X142156905Y-61682500D03*
X142156905Y-60412500D03*
X142156905Y-59142500D03*
D15*
X155456905Y-61047500D03*
D14*
X152756905Y-59142500D03*
X152756905Y-60412500D03*
X152756905Y-61682500D03*
X152756905Y-62952500D03*
X158156905Y-62952500D03*
X158156905Y-61682500D03*
X158156905Y-60412500D03*
X158156905Y-59142500D03*
X174156905Y-59142500D03*
X174156905Y-60412500D03*
X174156905Y-61682500D03*
X174156905Y-62952500D03*
X168756905Y-62952500D03*
X168756905Y-61682500D03*
X168756905Y-60412500D03*
X168756905Y-59142500D03*
D15*
X171456905Y-61047500D03*
X187456905Y-61047500D03*
D14*
X184756905Y-59142500D03*
X184756905Y-60412500D03*
X184756905Y-61682500D03*
X184756905Y-62952500D03*
X190156905Y-62952500D03*
X190156905Y-61682500D03*
X190156905Y-60412500D03*
X190156905Y-59142500D03*
D15*
X203456905Y-61047500D03*
D14*
X200756905Y-59142500D03*
X200756905Y-60412500D03*
X200756905Y-61682500D03*
X200756905Y-62952500D03*
X206156905Y-62952500D03*
X206156905Y-61682500D03*
X206156905Y-60412500D03*
X206156905Y-59142500D03*
X222156905Y-59142500D03*
X222156905Y-60412500D03*
X222156905Y-61682500D03*
X222156905Y-62952500D03*
X216756905Y-62952500D03*
X216756905Y-61682500D03*
X216756905Y-60412500D03*
X216756905Y-59142500D03*
D15*
X219456905Y-61047500D03*
D14*
X238156905Y-59142500D03*
X238156905Y-60412500D03*
X238156905Y-61682500D03*
X238156905Y-62952500D03*
X232756905Y-62952500D03*
X232756905Y-61682500D03*
X232756905Y-60412500D03*
X232756905Y-59142500D03*
D15*
X235456905Y-61047500D03*
X251456905Y-61047500D03*
D14*
X248756905Y-59142500D03*
X248756905Y-60412500D03*
X248756905Y-61682500D03*
X248756905Y-62952500D03*
X254156905Y-62952500D03*
X254156905Y-61682500D03*
X254156905Y-60412500D03*
X254156905Y-59142500D03*
D15*
X267456905Y-61047500D03*
D14*
X264756905Y-59142500D03*
X264756905Y-60412500D03*
X264756905Y-61682500D03*
X264756905Y-62952500D03*
X270156905Y-62952500D03*
X270156905Y-61682500D03*
X270156905Y-60412500D03*
X270156905Y-59142500D03*
X126156905Y-73142500D03*
X126156905Y-74412500D03*
X126156905Y-75682500D03*
X126156905Y-76952500D03*
X120756905Y-76952500D03*
X120756905Y-75682500D03*
X120756905Y-74412500D03*
X120756905Y-73142500D03*
D15*
X123456905Y-75047500D03*
X139456905Y-75047500D03*
D14*
X136756905Y-73142500D03*
X136756905Y-74412500D03*
X136756905Y-75682500D03*
X136756905Y-76952500D03*
X142156905Y-76952500D03*
X142156905Y-75682500D03*
X142156905Y-74412500D03*
X142156905Y-73142500D03*
D15*
X155456905Y-75047500D03*
D14*
X152756905Y-73142500D03*
X152756905Y-74412500D03*
X152756905Y-75682500D03*
X152756905Y-76952500D03*
X158156905Y-76952500D03*
X158156905Y-75682500D03*
X158156905Y-74412500D03*
X158156905Y-73142500D03*
D15*
X171456905Y-75047500D03*
D14*
X168756905Y-73142500D03*
X168756905Y-74412500D03*
X168756905Y-75682500D03*
X168756905Y-76952500D03*
X174156905Y-76952500D03*
X174156905Y-75682500D03*
X174156905Y-74412500D03*
X174156905Y-73142500D03*
X190156905Y-73142500D03*
X190156905Y-74412500D03*
X190156905Y-75682500D03*
X190156905Y-76952500D03*
X184756905Y-76952500D03*
X184756905Y-75682500D03*
X184756905Y-74412500D03*
X184756905Y-73142500D03*
D15*
X187456905Y-75047500D03*
X203456905Y-75047500D03*
D14*
X200756905Y-73142500D03*
X200756905Y-74412500D03*
X200756905Y-75682500D03*
X200756905Y-76952500D03*
X206156905Y-76952500D03*
X206156905Y-75682500D03*
X206156905Y-74412500D03*
X206156905Y-73142500D03*
X222156905Y-73142500D03*
X222156905Y-74412500D03*
X222156905Y-75682500D03*
X222156905Y-76952500D03*
X216756905Y-76952500D03*
X216756905Y-75682500D03*
X216756905Y-74412500D03*
X216756905Y-73142500D03*
D15*
X219456905Y-75047500D03*
X235456905Y-75047500D03*
D14*
X232756905Y-73142500D03*
X232756905Y-74412500D03*
X232756905Y-75682500D03*
X232756905Y-76952500D03*
X238156905Y-76952500D03*
X238156905Y-75682500D03*
X238156905Y-74412500D03*
X238156905Y-73142500D03*
X254156905Y-73142500D03*
X254156905Y-74412500D03*
X254156905Y-75682500D03*
X254156905Y-76952500D03*
X248756905Y-76952500D03*
X248756905Y-75682500D03*
X248756905Y-74412500D03*
X248756905Y-73142500D03*
D15*
X251456905Y-75047500D03*
X267456905Y-75047500D03*
D14*
X264756905Y-73142500D03*
X264756905Y-74412500D03*
X264756905Y-75682500D03*
X264756905Y-76952500D03*
X270156905Y-76952500D03*
X270156905Y-75682500D03*
X270156905Y-74412500D03*
X270156905Y-73142500D03*
X126156905Y-87142500D03*
X126156905Y-88412500D03*
X126156905Y-89682500D03*
X126156905Y-90952500D03*
X120756905Y-90952500D03*
X120756905Y-89682500D03*
X120756905Y-88412500D03*
X120756905Y-87142500D03*
D15*
X123456905Y-89047500D03*
D14*
X142156905Y-87142500D03*
X142156905Y-88412500D03*
X142156905Y-89682500D03*
X142156905Y-90952500D03*
X136756905Y-90952500D03*
X136756905Y-89682500D03*
X136756905Y-88412500D03*
X136756905Y-87142500D03*
D15*
X139456905Y-89047500D03*
D14*
X158156905Y-87142500D03*
X158156905Y-88412500D03*
X158156905Y-89682500D03*
X158156905Y-90952500D03*
X152756905Y-90952500D03*
X152756905Y-89682500D03*
X152756905Y-88412500D03*
X152756905Y-87142500D03*
D15*
X155456905Y-89047500D03*
D14*
X174156905Y-87142500D03*
X174156905Y-88412500D03*
X174156905Y-89682500D03*
X174156905Y-90952500D03*
X168756905Y-90952500D03*
X168756905Y-89682500D03*
X168756905Y-88412500D03*
X168756905Y-87142500D03*
D15*
X171456905Y-89047500D03*
D14*
X190156905Y-87142500D03*
X190156905Y-88412500D03*
X190156905Y-89682500D03*
X190156905Y-90952500D03*
X184756905Y-90952500D03*
X184756905Y-89682500D03*
X184756905Y-88412500D03*
X184756905Y-87142500D03*
D15*
X187456905Y-89047500D03*
X203456905Y-89047500D03*
D14*
X200756905Y-87142500D03*
X200756905Y-88412500D03*
X200756905Y-89682500D03*
X200756905Y-90952500D03*
X206156905Y-90952500D03*
X206156905Y-89682500D03*
X206156905Y-88412500D03*
X206156905Y-87142500D03*
X222156905Y-87142500D03*
X222156905Y-88412500D03*
X222156905Y-89682500D03*
X222156905Y-90952500D03*
X216756905Y-90952500D03*
X216756905Y-89682500D03*
X216756905Y-88412500D03*
X216756905Y-87142500D03*
D15*
X219456905Y-89047500D03*
D14*
X238156905Y-87142500D03*
X238156905Y-88412500D03*
X238156905Y-89682500D03*
X238156905Y-90952500D03*
X232756905Y-90952500D03*
X232756905Y-89682500D03*
X232756905Y-88412500D03*
X232756905Y-87142500D03*
D15*
X235456905Y-89047500D03*
D14*
X254156905Y-87142500D03*
X254156905Y-88412500D03*
X254156905Y-89682500D03*
X254156905Y-90952500D03*
X248756905Y-90952500D03*
X248756905Y-89682500D03*
X248756905Y-88412500D03*
X248756905Y-87142500D03*
D15*
X251456905Y-89047500D03*
X267456905Y-89047500D03*
D14*
X264756905Y-87142500D03*
X264756905Y-88412500D03*
X264756905Y-89682500D03*
X264756905Y-90952500D03*
X270156905Y-90952500D03*
X270156905Y-89682500D03*
X270156905Y-88412500D03*
X270156905Y-87142500D03*
D15*
X123456905Y-103047500D03*
D14*
X120756905Y-101142500D03*
X120756905Y-102412500D03*
X120756905Y-103682500D03*
X120756905Y-104952500D03*
X126156905Y-104952500D03*
X126156905Y-103682500D03*
X126156905Y-102412500D03*
X126156905Y-101142500D03*
X142156905Y-101142500D03*
X142156905Y-102412500D03*
X142156905Y-103682500D03*
X142156905Y-104952500D03*
X136756905Y-104952500D03*
X136756905Y-103682500D03*
X136756905Y-102412500D03*
X136756905Y-101142500D03*
D15*
X139456905Y-103047500D03*
X155456905Y-103047500D03*
D14*
X152756905Y-101142500D03*
X152756905Y-102412500D03*
X152756905Y-103682500D03*
X152756905Y-104952500D03*
X158156905Y-104952500D03*
X158156905Y-103682500D03*
X158156905Y-102412500D03*
X158156905Y-101142500D03*
X174156905Y-101142500D03*
X174156905Y-102412500D03*
X174156905Y-103682500D03*
X174156905Y-104952500D03*
X168756905Y-104952500D03*
X168756905Y-103682500D03*
X168756905Y-102412500D03*
X168756905Y-101142500D03*
D15*
X171456905Y-103047500D03*
X187456905Y-103047500D03*
D14*
X184756905Y-101142500D03*
X184756905Y-102412500D03*
X184756905Y-103682500D03*
X184756905Y-104952500D03*
X190156905Y-104952500D03*
X190156905Y-103682500D03*
X190156905Y-102412500D03*
X190156905Y-101142500D03*
D15*
X203456905Y-103047500D03*
D14*
X200756905Y-101142500D03*
X200756905Y-102412500D03*
X200756905Y-103682500D03*
X200756905Y-104952500D03*
X206156905Y-104952500D03*
X206156905Y-103682500D03*
X206156905Y-102412500D03*
X206156905Y-101142500D03*
X222156905Y-101142500D03*
X222156905Y-102412500D03*
X222156905Y-103682500D03*
X222156905Y-104952500D03*
X216756905Y-104952500D03*
X216756905Y-103682500D03*
X216756905Y-102412500D03*
X216756905Y-101142500D03*
D15*
X219456905Y-103047500D03*
X235456905Y-103047500D03*
D14*
X232756905Y-101142500D03*
X232756905Y-102412500D03*
X232756905Y-103682500D03*
X232756905Y-104952500D03*
X238156905Y-104952500D03*
X238156905Y-103682500D03*
X238156905Y-102412500D03*
X238156905Y-101142500D03*
D15*
X251456905Y-103047500D03*
D14*
X248756905Y-101142500D03*
X248756905Y-102412500D03*
X248756905Y-103682500D03*
X248756905Y-104952500D03*
X254156905Y-104952500D03*
X254156905Y-103682500D03*
X254156905Y-102412500D03*
X254156905Y-101142500D03*
X270156905Y-101142500D03*
X270156905Y-102412500D03*
X270156905Y-103682500D03*
X270156905Y-104952500D03*
X264756905Y-104952500D03*
X264756905Y-103682500D03*
X264756905Y-102412500D03*
X264756905Y-101142500D03*
D15*
X267456905Y-103047500D03*
D14*
X126156905Y-115142500D03*
X126156905Y-116412500D03*
X126156905Y-117682500D03*
X126156905Y-118952500D03*
X120756905Y-118952500D03*
X120756905Y-117682500D03*
X120756905Y-116412500D03*
X120756905Y-115142500D03*
D15*
X123456905Y-117047500D03*
D14*
X142156905Y-115142500D03*
X142156905Y-116412500D03*
X142156905Y-117682500D03*
X142156905Y-118952500D03*
X136756905Y-118952500D03*
X136756905Y-117682500D03*
X136756905Y-116412500D03*
X136756905Y-115142500D03*
D15*
X139456905Y-117047500D03*
D14*
X158156905Y-115142500D03*
X158156905Y-116412500D03*
X158156905Y-117682500D03*
X158156905Y-118952500D03*
X152756905Y-118952500D03*
X152756905Y-117682500D03*
X152756905Y-116412500D03*
X152756905Y-115142500D03*
D15*
X155456905Y-117047500D03*
D14*
X174156905Y-115142500D03*
X174156905Y-116412500D03*
X174156905Y-117682500D03*
X174156905Y-118952500D03*
X168756905Y-118952500D03*
X168756905Y-117682500D03*
X168756905Y-116412500D03*
X168756905Y-115142500D03*
D15*
X171456905Y-117047500D03*
X187456905Y-117047500D03*
D14*
X184756905Y-115142500D03*
X184756905Y-116412500D03*
X184756905Y-117682500D03*
X184756905Y-118952500D03*
X190156905Y-118952500D03*
X190156905Y-117682500D03*
X190156905Y-116412500D03*
X190156905Y-115142500D03*
D15*
X203456905Y-117047500D03*
D14*
X200756905Y-115142500D03*
X200756905Y-116412500D03*
X200756905Y-117682500D03*
X200756905Y-118952500D03*
X206156905Y-118952500D03*
X206156905Y-117682500D03*
X206156905Y-116412500D03*
X206156905Y-115142500D03*
X222156905Y-115142500D03*
X222156905Y-116412500D03*
X222156905Y-117682500D03*
X222156905Y-118952500D03*
X216756905Y-118952500D03*
X216756905Y-117682500D03*
X216756905Y-116412500D03*
X216756905Y-115142500D03*
D15*
X219456905Y-117047500D03*
D14*
X238156905Y-115142500D03*
X238156905Y-116412500D03*
X238156905Y-117682500D03*
X238156905Y-118952500D03*
X232756905Y-118952500D03*
X232756905Y-117682500D03*
X232756905Y-116412500D03*
X232756905Y-115142500D03*
D15*
X235456905Y-117047500D03*
X251456905Y-117047500D03*
D14*
X248756905Y-115142500D03*
X248756905Y-116412500D03*
X248756905Y-117682500D03*
X248756905Y-118952500D03*
X254156905Y-118952500D03*
X254156905Y-117682500D03*
X254156905Y-116412500D03*
X254156905Y-115142500D03*
D15*
X267456905Y-117047500D03*
D14*
X264756905Y-115142500D03*
X264756905Y-116412500D03*
X264756905Y-117682500D03*
X264756905Y-118952500D03*
X270156905Y-118952500D03*
X270156905Y-117682500D03*
X270156905Y-116412500D03*
X270156905Y-115142500D03*
X126156905Y-129142500D03*
X126156905Y-130412500D03*
X126156905Y-131682500D03*
X126156905Y-132952500D03*
X120756905Y-132952500D03*
X120756905Y-131682500D03*
X120756905Y-130412500D03*
X120756905Y-129142500D03*
D15*
X123456905Y-131047500D03*
X139456905Y-131047500D03*
D14*
X136756905Y-129142500D03*
X136756905Y-130412500D03*
X136756905Y-131682500D03*
X136756905Y-132952500D03*
X142156905Y-132952500D03*
X142156905Y-131682500D03*
X142156905Y-130412500D03*
X142156905Y-129142500D03*
X158156905Y-129142500D03*
X158156905Y-130412500D03*
X158156905Y-131682500D03*
X158156905Y-132952500D03*
X152756905Y-132952500D03*
X152756905Y-131682500D03*
X152756905Y-130412500D03*
X152756905Y-129142500D03*
D15*
X155456905Y-131047500D03*
D14*
X174156905Y-129142500D03*
X174156905Y-130412500D03*
X174156905Y-131682500D03*
X174156905Y-132952500D03*
X168756905Y-132952500D03*
X168756905Y-131682500D03*
X168756905Y-130412500D03*
X168756905Y-129142500D03*
D15*
X171456905Y-131047500D03*
X187456905Y-131047500D03*
D14*
X184756905Y-129142500D03*
X184756905Y-130412500D03*
X184756905Y-131682500D03*
X184756905Y-132952500D03*
X190156905Y-132952500D03*
X190156905Y-131682500D03*
X190156905Y-130412500D03*
X190156905Y-129142500D03*
D15*
X203456905Y-131047500D03*
D14*
X200756905Y-129142500D03*
X200756905Y-130412500D03*
X200756905Y-131682500D03*
X200756905Y-132952500D03*
X206156905Y-132952500D03*
X206156905Y-131682500D03*
X206156905Y-130412500D03*
X206156905Y-129142500D03*
D15*
X219456905Y-131047500D03*
D14*
X216756905Y-129142500D03*
X216756905Y-130412500D03*
X216756905Y-131682500D03*
X216756905Y-132952500D03*
X222156905Y-132952500D03*
X222156905Y-131682500D03*
X222156905Y-130412500D03*
X222156905Y-129142500D03*
D15*
X235456905Y-131047500D03*
D14*
X232756905Y-129142500D03*
X232756905Y-130412500D03*
X232756905Y-131682500D03*
X232756905Y-132952500D03*
X238156905Y-132952500D03*
X238156905Y-131682500D03*
X238156905Y-130412500D03*
X238156905Y-129142500D03*
D15*
X251456905Y-131047500D03*
D14*
X248756905Y-129142500D03*
X248756905Y-130412500D03*
X248756905Y-131682500D03*
X248756905Y-132952500D03*
X254156905Y-132952500D03*
X254156905Y-131682500D03*
X254156905Y-130412500D03*
X254156905Y-129142500D03*
X270156905Y-129142500D03*
X270156905Y-130412500D03*
X270156905Y-131682500D03*
X270156905Y-132952500D03*
X264756905Y-132952500D03*
X264756905Y-131682500D03*
X264756905Y-130412500D03*
X264756905Y-129142500D03*
D15*
X267456905Y-131047500D03*
D14*
X126156905Y-143142500D03*
X126156905Y-144412500D03*
X126156905Y-145682500D03*
X126156905Y-146952500D03*
X120756905Y-146952500D03*
X120756905Y-145682500D03*
X120756905Y-144412500D03*
X120756905Y-143142500D03*
D15*
X123456905Y-145047500D03*
X139456905Y-145047500D03*
D14*
X136756905Y-143142500D03*
X136756905Y-144412500D03*
X136756905Y-145682500D03*
X136756905Y-146952500D03*
X142156905Y-146952500D03*
X142156905Y-145682500D03*
X142156905Y-144412500D03*
X142156905Y-143142500D03*
X158156905Y-143142500D03*
X158156905Y-144412500D03*
X158156905Y-145682500D03*
X158156905Y-146952500D03*
X152756905Y-146952500D03*
X152756905Y-145682500D03*
X152756905Y-144412500D03*
X152756905Y-143142500D03*
D15*
X155456905Y-145047500D03*
D14*
X174156905Y-143142500D03*
X174156905Y-144412500D03*
X174156905Y-145682500D03*
X174156905Y-146952500D03*
X168756905Y-146952500D03*
X168756905Y-145682500D03*
X168756905Y-144412500D03*
X168756905Y-143142500D03*
D15*
X171456905Y-145047500D03*
X187456905Y-145047500D03*
D14*
X184756905Y-143142500D03*
X184756905Y-144412500D03*
X184756905Y-145682500D03*
X184756905Y-146952500D03*
X190156905Y-146952500D03*
X190156905Y-145682500D03*
X190156905Y-144412500D03*
X190156905Y-143142500D03*
X206156905Y-143142500D03*
X206156905Y-144412500D03*
X206156905Y-145682500D03*
X206156905Y-146952500D03*
X200756905Y-146952500D03*
X200756905Y-145682500D03*
X200756905Y-144412500D03*
X200756905Y-143142500D03*
D15*
X203456905Y-145047500D03*
X219456905Y-145047500D03*
D14*
X216756905Y-143142500D03*
X216756905Y-144412500D03*
X216756905Y-145682500D03*
X216756905Y-146952500D03*
X222156905Y-146952500D03*
X222156905Y-145682500D03*
X222156905Y-144412500D03*
X222156905Y-143142500D03*
X238156905Y-143142500D03*
X238156905Y-144412500D03*
X238156905Y-145682500D03*
X238156905Y-146952500D03*
X232756905Y-146952500D03*
X232756905Y-145682500D03*
X232756905Y-144412500D03*
X232756905Y-143142500D03*
D15*
X235456905Y-145047500D03*
D14*
X254156905Y-143142500D03*
X254156905Y-144412500D03*
X254156905Y-145682500D03*
X254156905Y-146952500D03*
X248756905Y-146952500D03*
X248756905Y-145682500D03*
X248756905Y-144412500D03*
X248756905Y-143142500D03*
D15*
X251456905Y-145047500D03*
X267456905Y-145047500D03*
D14*
X264756905Y-143142500D03*
X264756905Y-144412500D03*
X264756905Y-145682500D03*
X264756905Y-146952500D03*
X270156905Y-146952500D03*
X270156905Y-145682500D03*
X270156905Y-144412500D03*
X270156905Y-143142500D03*
D15*
X123456905Y-159047500D03*
D14*
X120756905Y-157142500D03*
X120756905Y-158412500D03*
X120756905Y-159682500D03*
X120756905Y-160952500D03*
X126156905Y-160952500D03*
X126156905Y-159682500D03*
X126156905Y-158412500D03*
X126156905Y-157142500D03*
D15*
X139456905Y-159047500D03*
D14*
X136756905Y-157142500D03*
X136756905Y-158412500D03*
X136756905Y-159682500D03*
X136756905Y-160952500D03*
X142156905Y-160952500D03*
X142156905Y-159682500D03*
X142156905Y-158412500D03*
X142156905Y-157142500D03*
X158156905Y-157142500D03*
X158156905Y-158412500D03*
X158156905Y-159682500D03*
X158156905Y-160952500D03*
X152756905Y-160952500D03*
X152756905Y-159682500D03*
X152756905Y-158412500D03*
X152756905Y-157142500D03*
D15*
X155456905Y-159047500D03*
X171456905Y-159047500D03*
D14*
X168756905Y-157142500D03*
X168756905Y-158412500D03*
X168756905Y-159682500D03*
X168756905Y-160952500D03*
X174156905Y-160952500D03*
X174156905Y-159682500D03*
X174156905Y-158412500D03*
X174156905Y-157142500D03*
D15*
X187456905Y-159047500D03*
D14*
X184756905Y-157142500D03*
X184756905Y-158412500D03*
X184756905Y-159682500D03*
X184756905Y-160952500D03*
X190156905Y-160952500D03*
X190156905Y-159682500D03*
X190156905Y-158412500D03*
X190156905Y-157142500D03*
X206156905Y-157142500D03*
X206156905Y-158412500D03*
X206156905Y-159682500D03*
X206156905Y-160952500D03*
X200756905Y-160952500D03*
X200756905Y-159682500D03*
X200756905Y-158412500D03*
X200756905Y-157142500D03*
D15*
X203456905Y-159047500D03*
X219456905Y-159047500D03*
D14*
X216756905Y-157142500D03*
X216756905Y-158412500D03*
X216756905Y-159682500D03*
X216756905Y-160952500D03*
X222156905Y-160952500D03*
X222156905Y-159682500D03*
X222156905Y-158412500D03*
X222156905Y-157142500D03*
X238156905Y-157142500D03*
X238156905Y-158412500D03*
X238156905Y-159682500D03*
X238156905Y-160952500D03*
X232756905Y-160952500D03*
X232756905Y-159682500D03*
X232756905Y-158412500D03*
X232756905Y-157142500D03*
D15*
X235456905Y-159047500D03*
X251456905Y-159047500D03*
D14*
X248756905Y-157142500D03*
X248756905Y-158412500D03*
X248756905Y-159682500D03*
X248756905Y-160952500D03*
X254156905Y-160952500D03*
X254156905Y-159682500D03*
X254156905Y-158412500D03*
X254156905Y-157142500D03*
X270156905Y-157142500D03*
X270156905Y-158412500D03*
X270156905Y-159682500D03*
X270156905Y-160952500D03*
X264756905Y-160952500D03*
X264756905Y-159682500D03*
X264756905Y-158412500D03*
X264756905Y-157142500D03*
D15*
X267456905Y-159047500D03*
D14*
X126156905Y-171142500D03*
X126156905Y-172412500D03*
X126156905Y-173682500D03*
X126156905Y-174952500D03*
X120756905Y-174952500D03*
X120756905Y-173682500D03*
X120756905Y-172412500D03*
X120756905Y-171142500D03*
D15*
X123456905Y-173047500D03*
D14*
X142156905Y-171142500D03*
X142156905Y-172412500D03*
X142156905Y-173682500D03*
X142156905Y-174952500D03*
X136756905Y-174952500D03*
X136756905Y-173682500D03*
X136756905Y-172412500D03*
X136756905Y-171142500D03*
D15*
X139456905Y-173047500D03*
X155456905Y-173047500D03*
D14*
X152756905Y-171142500D03*
X152756905Y-172412500D03*
X152756905Y-173682500D03*
X152756905Y-174952500D03*
X158156905Y-174952500D03*
X158156905Y-173682500D03*
X158156905Y-172412500D03*
X158156905Y-171142500D03*
X174156905Y-171142500D03*
X174156905Y-172412500D03*
X174156905Y-173682500D03*
X174156905Y-174952500D03*
X168756905Y-174952500D03*
X168756905Y-173682500D03*
X168756905Y-172412500D03*
X168756905Y-171142500D03*
D15*
X171456905Y-173047500D03*
X187456905Y-173047500D03*
D14*
X184756905Y-171142500D03*
X184756905Y-172412500D03*
X184756905Y-173682500D03*
X184756905Y-174952500D03*
X190156905Y-174952500D03*
X190156905Y-173682500D03*
X190156905Y-172412500D03*
X190156905Y-171142500D03*
D15*
X203456905Y-173047500D03*
D14*
X200756905Y-171142500D03*
X200756905Y-172412500D03*
X200756905Y-173682500D03*
X200756905Y-174952500D03*
X206156905Y-174952500D03*
X206156905Y-173682500D03*
X206156905Y-172412500D03*
X206156905Y-171142500D03*
D15*
X219456905Y-173047500D03*
D14*
X216756905Y-171142500D03*
X216756905Y-172412500D03*
X216756905Y-173682500D03*
X216756905Y-174952500D03*
X222156905Y-174952500D03*
X222156905Y-173682500D03*
X222156905Y-172412500D03*
X222156905Y-171142500D03*
D15*
X235456905Y-173047500D03*
D14*
X232756905Y-171142500D03*
X232756905Y-172412500D03*
X232756905Y-173682500D03*
X232756905Y-174952500D03*
X238156905Y-174952500D03*
X238156905Y-173682500D03*
X238156905Y-172412500D03*
X238156905Y-171142500D03*
X254156905Y-171142500D03*
X254156905Y-172412500D03*
X254156905Y-173682500D03*
X254156905Y-174952500D03*
X248756905Y-174952500D03*
X248756905Y-173682500D03*
X248756905Y-172412500D03*
X248756905Y-171142500D03*
D15*
X251456905Y-173047500D03*
D14*
X270156905Y-171142500D03*
X270156905Y-172412500D03*
X270156905Y-173682500D03*
X270156905Y-174952500D03*
X264756905Y-174952500D03*
X264756905Y-173682500D03*
X264756905Y-172412500D03*
X264756905Y-171142500D03*
D15*
X267456905Y-173047500D03*
X123456905Y-187047500D03*
D14*
X120756905Y-185142500D03*
X120756905Y-186412500D03*
X120756905Y-187682500D03*
X120756905Y-188952500D03*
X126156905Y-188952500D03*
X126156905Y-187682500D03*
X126156905Y-186412500D03*
X126156905Y-185142500D03*
D15*
X139456905Y-187047500D03*
D14*
X136756905Y-185142500D03*
X136756905Y-186412500D03*
X136756905Y-187682500D03*
X136756905Y-188952500D03*
X142156905Y-188952500D03*
X142156905Y-187682500D03*
X142156905Y-186412500D03*
X142156905Y-185142500D03*
X158156905Y-185142500D03*
X158156905Y-186412500D03*
X158156905Y-187682500D03*
X158156905Y-188952500D03*
X152756905Y-188952500D03*
X152756905Y-187682500D03*
X152756905Y-186412500D03*
X152756905Y-185142500D03*
D15*
X155456905Y-187047500D03*
D14*
X174156905Y-185142500D03*
X174156905Y-186412500D03*
X174156905Y-187682500D03*
X174156905Y-188952500D03*
X168756905Y-188952500D03*
X168756905Y-187682500D03*
X168756905Y-186412500D03*
X168756905Y-185142500D03*
D15*
X171456905Y-187047500D03*
X187456905Y-187047500D03*
D14*
X184756905Y-185142500D03*
X184756905Y-186412500D03*
X184756905Y-187682500D03*
X184756905Y-188952500D03*
X190156905Y-188952500D03*
X190156905Y-187682500D03*
X190156905Y-186412500D03*
X190156905Y-185142500D03*
X206156905Y-185142500D03*
X206156905Y-186412500D03*
X206156905Y-187682500D03*
X206156905Y-188952500D03*
X200756905Y-188952500D03*
X200756905Y-187682500D03*
X200756905Y-186412500D03*
X200756905Y-185142500D03*
D15*
X203456905Y-187047500D03*
D14*
X222156905Y-185142500D03*
X222156905Y-186412500D03*
X222156905Y-187682500D03*
X222156905Y-188952500D03*
X216756905Y-188952500D03*
X216756905Y-187682500D03*
X216756905Y-186412500D03*
X216756905Y-185142500D03*
D15*
X219456905Y-187047500D03*
X235456905Y-187047500D03*
D14*
X232756905Y-185142500D03*
X232756905Y-186412500D03*
X232756905Y-187682500D03*
X232756905Y-188952500D03*
X238156905Y-188952500D03*
X238156905Y-187682500D03*
X238156905Y-186412500D03*
X238156905Y-185142500D03*
X254156905Y-185142500D03*
X254156905Y-186412500D03*
X254156905Y-187682500D03*
X254156905Y-188952500D03*
X248756905Y-188952500D03*
X248756905Y-187682500D03*
X248756905Y-186412500D03*
X248756905Y-185142500D03*
D15*
X251456905Y-187047500D03*
X267456905Y-187047500D03*
D14*
X264756905Y-185142500D03*
X264756905Y-186412500D03*
X264756905Y-187682500D03*
X264756905Y-188952500D03*
X270156905Y-188952500D03*
X270156905Y-187682500D03*
X270156905Y-186412500D03*
X270156905Y-185142500D03*
M02*
