M48
;DRILL file {KiCad 5.0.0-rc2-dev-unknown-5a90858~64~ubuntu16.04.1} date Tue Dec 18 14:43:29 2018
;FORMAT={2:4/ absolute / inch / suppress leading zeros}
FMAT,2
INCH,TZ
T1C0.0118
T2C0.0157
T3C0.0300
T4C0.0315
T5C0.0598
%
G90
G05
M72
T1
X73566Y-28838
X73566Y-29310
X73566Y-29822
X73566Y-30255
X74038Y-28838
X74038Y-29310
X74038Y-29822
X74038Y-30255
X92463Y-50885
X92463Y-51357
X92463Y-51869
X92463Y-52302
X92936Y-50885
X92936Y-51357
X92936Y-51869
X92936Y-52302
X67266Y-61908
X67266Y-62381
X67266Y-62893
X67266Y-63326
X67739Y-61908
X67739Y-62381
X67739Y-62893
X67739Y-63326
X86164Y-67420
X86164Y-67893
X86164Y-68405
X86164Y-68838
X86637Y-67420
X86637Y-67893
X86637Y-68405
X86637Y-68838
X98763Y-50885
X98763Y-51357
X98763Y-51869
X98763Y-52302
X99235Y-50885
X99235Y-51357
X99235Y-51869
X99235Y-52302
X92463Y-72932
X92463Y-73405
X92463Y-73916
X92463Y-74349
X92936Y-72932
X92936Y-73405
X92936Y-73916
X92936Y-74349
X79865Y-28838
X79865Y-29310
X79865Y-29822
X79865Y-30255
X80337Y-28838
X80337Y-29310
X80337Y-29822
X80337Y-30255
X79865Y-72932
X79865Y-73405
X79865Y-73916
X79865Y-74349
X80337Y-72932
X80337Y-73405
X80337Y-73916
X80337Y-74349
X60967Y-34349
X60967Y-34822
X60967Y-35334
X60967Y-35767
X61440Y-34349
X61440Y-34822
X61440Y-35334
X61440Y-35767
X92463Y-56397
X92463Y-56869
X92463Y-57381
X92463Y-57814
X92936Y-56397
X92936Y-56869
X92936Y-57381
X92936Y-57814
X105062Y-23326
X105062Y-23798
X105062Y-24310
X105062Y-24743
X105534Y-23326
X105534Y-23798
X105534Y-24310
X105534Y-24743
X67266Y-28838
X67266Y-29310
X67266Y-29822
X67266Y-30255
X67739Y-28838
X67739Y-29310
X67739Y-29822
X67739Y-30255
X54668Y-56397
X54668Y-56869
X54668Y-57381
X54668Y-57814
X55141Y-56397
X55141Y-56869
X55141Y-57381
X55141Y-57814
X105062Y-56397
X105062Y-56869
X105062Y-57381
X105062Y-57814
X105534Y-56397
X105534Y-56869
X105534Y-57381
X105534Y-57814
X92463Y-28838
X92463Y-29310
X92463Y-29822
X92463Y-30255
X92936Y-28838
X92936Y-29310
X92936Y-29822
X92936Y-30255
X54668Y-61908
X54668Y-62381
X54668Y-62893
X54668Y-63326
X55141Y-61908
X55141Y-62381
X55141Y-62893
X55141Y-63326
X86164Y-39861
X86164Y-40334
X86164Y-40845
X86164Y-41279
X86637Y-39861
X86637Y-40334
X86637Y-40845
X86637Y-41279
X48369Y-34349
X48369Y-34822
X48369Y-35334
X48369Y-35767
X48841Y-34349
X48841Y-34822
X48841Y-35334
X48841Y-35767
X73566Y-34349
X73566Y-34822
X73566Y-35334
X73566Y-35767
X74038Y-34349
X74038Y-34822
X74038Y-35334
X74038Y-35767
X98763Y-39861
X98763Y-40334
X98763Y-40845
X98763Y-41279
X99235Y-39861
X99235Y-40334
X99235Y-40845
X99235Y-41279
X105062Y-67420
X105062Y-67893
X105062Y-68405
X105062Y-68838
X105534Y-67420
X105534Y-67893
X105534Y-68405
X105534Y-68838
X48369Y-28838
X48369Y-29310
X48369Y-29822
X48369Y-30255
X48841Y-28838
X48841Y-29310
X48841Y-29822
X48841Y-30255
X92463Y-61908
X92463Y-62381
X92463Y-62893
X92463Y-63326
X92936Y-61908
X92936Y-62381
X92936Y-62893
X92936Y-63326
X98763Y-67420
X98763Y-67893
X98763Y-68405
X98763Y-68838
X99235Y-67420
X99235Y-67893
X99235Y-68405
X99235Y-68838
X79865Y-34349
X79865Y-34822
X79865Y-35334
X79865Y-35767
X80337Y-34349
X80337Y-34822
X80337Y-35334
X80337Y-35767
X92463Y-23326
X92463Y-23798
X92463Y-24310
X92463Y-24743
X92936Y-23326
X92936Y-23798
X92936Y-24310
X92936Y-24743
X98763Y-61908
X98763Y-62381
X98763Y-62893
X98763Y-63326
X99235Y-61908
X99235Y-62381
X99235Y-62893
X99235Y-63326
X79865Y-56397
X79865Y-56869
X79865Y-57381
X79865Y-57814
X80337Y-56397
X80337Y-56869
X80337Y-57381
X80337Y-57814
X48369Y-72932
X48369Y-73405
X48369Y-73916
X48369Y-74349
X48841Y-72932
X48841Y-73405
X48841Y-73916
X48841Y-74349
X73566Y-72932
X73566Y-73405
X73566Y-73916
X73566Y-74349
X74038Y-72932
X74038Y-73405
X74038Y-73916
X74038Y-74349
X54668Y-23326
X54668Y-23798
X54668Y-24310
X54668Y-24743
X55141Y-23326
X55141Y-23798
X55141Y-24310
X55141Y-24743
X92463Y-67420
X92463Y-67893
X92463Y-68405
X92463Y-68838
X92936Y-67420
X92936Y-67893
X92936Y-68405
X92936Y-68838
X48369Y-67420
X48369Y-67893
X48369Y-68405
X48369Y-68838
X48841Y-67420
X48841Y-67893
X48841Y-68405
X48841Y-68838
X105062Y-28838
X105062Y-29310
X105062Y-29822
X105062Y-30255
X105534Y-28838
X105534Y-29310
X105534Y-29822
X105534Y-30255
X79865Y-45373
X79865Y-45845
X79865Y-46357
X79865Y-46790
X80337Y-45373
X80337Y-45845
X80337Y-46357
X80337Y-46790
X48369Y-50885
X48369Y-51357
X48369Y-51869
X48369Y-52302
X48841Y-50885
X48841Y-51357
X48841Y-51869
X48841Y-52302
X48369Y-45373
X48369Y-45845
X48369Y-46357
X48369Y-46790
X48841Y-45373
X48841Y-45845
X48841Y-46357
X48841Y-46790
X105062Y-45373
X105062Y-45845
X105062Y-46357
X105062Y-46790
X105534Y-45373
X105534Y-45845
X105534Y-46357
X105534Y-46790
X73566Y-45373
X73566Y-45845
X73566Y-46357
X73566Y-46790
X74038Y-45373
X74038Y-45845
X74038Y-46357
X74038Y-46790
X98763Y-56397
X98763Y-56869
X98763Y-57381
X98763Y-57814
X99235Y-56397
X99235Y-56869
X99235Y-57381
X99235Y-57814
X105062Y-72932
X105062Y-73405
X105062Y-73916
X105062Y-74349
X105534Y-72932
X105534Y-73405
X105534Y-73916
X105534Y-74349
X73566Y-67420
X73566Y-67893
X73566Y-68405
X73566Y-68838
X74038Y-67420
X74038Y-67893
X74038Y-68405
X74038Y-68838
X60967Y-72932
X60967Y-73405
X60967Y-73916
X60967Y-74349
X61440Y-72932
X61440Y-73405
X61440Y-73916
X61440Y-74349
X92463Y-45373
X92463Y-45845
X92463Y-46357
X92463Y-46790
X92936Y-45373
X92936Y-45845
X92936Y-46357
X92936Y-46790
X60967Y-28838
X60967Y-29310
X60967Y-29822
X60967Y-30255
X61440Y-28838
X61440Y-29310
X61440Y-29822
X61440Y-30255
X105062Y-34349
X105062Y-34822
X105062Y-35334
X105062Y-35767
X105534Y-34349
X105534Y-34822
X105534Y-35334
X105534Y-35767
X60967Y-23326
X60967Y-23798
X60967Y-24310
X60967Y-24743
X61440Y-23326
X61440Y-23798
X61440Y-24310
X61440Y-24743
X86164Y-28838
X86164Y-29310
X86164Y-29822
X86164Y-30255
X86637Y-28838
X86637Y-29310
X86637Y-29822
X86637Y-30255
X54668Y-72932
X54668Y-73405
X54668Y-73916
X54668Y-74349
X55141Y-72932
X55141Y-73405
X55141Y-73916
X55141Y-74349
X73566Y-23326
X73566Y-23798
X73566Y-24310
X73566Y-24743
X74038Y-23326
X74038Y-23798
X74038Y-24310
X74038Y-24743
X73566Y-61908
X73566Y-62381
X73566Y-62893
X73566Y-63326
X74038Y-61908
X74038Y-62381
X74038Y-62893
X74038Y-63326
X67266Y-50885
X67266Y-51357
X67266Y-51869
X67266Y-52302
X67739Y-50885
X67739Y-51357
X67739Y-51869
X67739Y-52302
X60967Y-56397
X60967Y-56869
X60967Y-57381
X60967Y-57814
X61440Y-56397
X61440Y-56869
X61440Y-57381
X61440Y-57814
X54668Y-45373
X54668Y-45845
X54668Y-46357
X54668Y-46790
X55141Y-45373
X55141Y-45845
X55141Y-46357
X55141Y-46790
X54668Y-28838
X54668Y-29310
X54668Y-29822
X54668Y-30255
X55141Y-28838
X55141Y-29310
X55141Y-29822
X55141Y-30255
X54668Y-50885
X54668Y-51357
X54668Y-51869
X54668Y-52302
X55141Y-50885
X55141Y-51357
X55141Y-51869
X55141Y-52302
X79865Y-61908
X79865Y-62381
X79865Y-62893
X79865Y-63326
X80337Y-61908
X80337Y-62381
X80337Y-62893
X80337Y-63326
X60967Y-67420
X60967Y-67893
X60967Y-68405
X60967Y-68838
X61440Y-67420
X61440Y-67893
X61440Y-68405
X61440Y-68838
X67266Y-39861
X67266Y-40334
X67266Y-40845
X67266Y-41279
X67739Y-39861
X67739Y-40334
X67739Y-40845
X67739Y-41279
X67266Y-67420
X67266Y-67893
X67266Y-68405
X67266Y-68838
X67739Y-67420
X67739Y-67893
X67739Y-68405
X67739Y-68838
X48369Y-23326
X48369Y-23798
X48369Y-24310
X48369Y-24743
X48841Y-23326
X48841Y-23798
X48841Y-24310
X48841Y-24743
X79865Y-23326
X79865Y-23798
X79865Y-24310
X79865Y-24743
X80337Y-23326
X80337Y-23798
X80337Y-24310
X80337Y-24743
X105062Y-61908
X105062Y-62381
X105062Y-62893
X105062Y-63326
X105534Y-61908
X105534Y-62381
X105534Y-62893
X105534Y-63326
X60967Y-39861
X60967Y-40334
X60967Y-40845
X60967Y-41279
X61440Y-39861
X61440Y-40334
X61440Y-40845
X61440Y-41279
X67266Y-45373
X67266Y-45845
X67266Y-46357
X67266Y-46790
X67739Y-45373
X67739Y-45845
X67739Y-46357
X67739Y-46790
X48369Y-39861
X48369Y-40334
X48369Y-40845
X48369Y-41279
X48841Y-39861
X48841Y-40334
X48841Y-40845
X48841Y-41279
X54668Y-34349
X54668Y-34822
X54668Y-35334
X54668Y-35767
X55141Y-34349
X55141Y-34822
X55141Y-35334
X55141Y-35767
X86164Y-23326
X86164Y-23798
X86164Y-24310
X86164Y-24743
X86637Y-23326
X86637Y-23798
X86637Y-24310
X86637Y-24743
X92463Y-34349
X92463Y-34822
X92463Y-35334
X92463Y-35767
X92936Y-34349
X92936Y-34822
X92936Y-35334
X92936Y-35767
X54668Y-39861
X54668Y-40334
X54668Y-40845
X54668Y-41279
X55141Y-39861
X55141Y-40334
X55141Y-40845
X55141Y-41279
X48369Y-56397
X48369Y-56869
X48369Y-57381
X48369Y-57814
X48841Y-56397
X48841Y-56869
X48841Y-57381
X48841Y-57814
X79865Y-67420
X79865Y-67893
X79865Y-68405
X79865Y-68838
X80337Y-67420
X80337Y-67893
X80337Y-68405
X80337Y-68838
X60967Y-50885
X60967Y-51357
X60967Y-51869
X60967Y-52302
X61440Y-50885
X61440Y-51357
X61440Y-51869
X61440Y-52302
X48369Y-61908
X48369Y-62381
X48369Y-62893
X48369Y-63326
X48841Y-61908
X48841Y-62381
X48841Y-62893
X48841Y-63326
X86164Y-50885
X86164Y-51357
X86164Y-51869
X86164Y-52302
X86637Y-50885
X86637Y-51357
X86637Y-51869
X86637Y-52302
X60967Y-61908
X60967Y-62381
X60967Y-62893
X60967Y-63326
X61440Y-61908
X61440Y-62381
X61440Y-62893
X61440Y-63326
X98763Y-45373
X98763Y-45845
X98763Y-46357
X98763Y-46790
X99235Y-45373
X99235Y-45845
X99235Y-46357
X99235Y-46790
X73566Y-56397
X73566Y-56869
X73566Y-57381
X73566Y-57814
X74038Y-56397
X74038Y-56869
X74038Y-57381
X74038Y-57814
X98763Y-34349
X98763Y-34822
X98763Y-35334
X98763Y-35767
X99235Y-34349
X99235Y-34822
X99235Y-35334
X99235Y-35767
X86164Y-72932
X86164Y-73405
X86164Y-73916
X86164Y-74349
X86637Y-72932
X86637Y-73405
X86637Y-73916
X86637Y-74349
X54668Y-67420
X54668Y-67893
X54668Y-68405
X54668Y-68838
X55141Y-67420
X55141Y-67893
X55141Y-68405
X55141Y-68838
X67266Y-72932
X67266Y-73405
X67266Y-73916
X67266Y-74349
X67739Y-72932
X67739Y-73405
X67739Y-73916
X67739Y-74349
X79865Y-50885
X79865Y-51357
X79865Y-51869
X79865Y-52302
X80337Y-50885
X80337Y-51357
X80337Y-51869
X80337Y-52302
X86164Y-56397
X86164Y-56869
X86164Y-57381
X86164Y-57814
X86637Y-56397
X86637Y-56869
X86637Y-57381
X86637Y-57814
X105062Y-50885
X105062Y-51357
X105062Y-51869
X105062Y-52302
X105534Y-50885
X105534Y-51357
X105534Y-51869
X105534Y-52302
X60967Y-45373
X60967Y-45845
X60967Y-46357
X60967Y-46790
X61440Y-45373
X61440Y-45845
X61440Y-46357
X61440Y-46790
X86164Y-45373
X86164Y-45845
X86164Y-46357
X86164Y-46790
X86637Y-45373
X86637Y-45845
X86637Y-46357
X86637Y-46790
X98763Y-28838
X98763Y-29310
X98763Y-29822
X98763Y-30255
X99235Y-28838
X99235Y-29310
X99235Y-29822
X99235Y-30255
X105062Y-39861
X105062Y-40334
X105062Y-40845
X105062Y-41279
X105534Y-39861
X105534Y-40334
X105534Y-40845
X105534Y-41279
X67266Y-56397
X67266Y-56869
X67266Y-57381
X67266Y-57814
X67739Y-56397
X67739Y-56869
X67739Y-57381
X67739Y-57814
X86164Y-34349
X86164Y-34822
X86164Y-35334
X86164Y-35767
X86637Y-34349
X86637Y-34822
X86637Y-35334
X86637Y-35767
X98763Y-72932
X98763Y-73405
X98763Y-73916
X98763Y-74349
X99235Y-72932
X99235Y-73405
X99235Y-73916
X99235Y-74349
X86164Y-61908
X86164Y-62381
X86164Y-62893
X86164Y-63326
X86637Y-61908
X86637Y-62381
X86637Y-62893
X86637Y-63326
X67266Y-34349
X67266Y-34822
X67266Y-35334
X67266Y-35767
X67739Y-34349
X67739Y-34822
X67739Y-35334
X67739Y-35767
X73566Y-39861
X73566Y-40334
X73566Y-40845
X73566Y-41279
X74038Y-39861
X74038Y-40334
X74038Y-40845
X74038Y-41279
X79865Y-39861
X79865Y-40334
X79865Y-40845
X79865Y-41279
X80337Y-39861
X80337Y-40334
X80337Y-40845
X80337Y-41279
X92463Y-39861
X92463Y-40334
X92463Y-40845
X92463Y-41279
X92936Y-39861
X92936Y-40334
X92936Y-40845
X92936Y-41279
X73566Y-50885
X73566Y-51357
X73566Y-51869
X73566Y-52302
X74038Y-50885
X74038Y-51357
X74038Y-51869
X74038Y-52302
X98763Y-23326
X98763Y-23798
X98763Y-24310
X98763Y-24743
X99235Y-23326
X99235Y-23798
X99235Y-24310
X99235Y-24743
X67266Y-23326
X67266Y-23798
X67266Y-24310
X67266Y-24743
X67739Y-23326
X67739Y-23798
X67739Y-24310
X67739Y-24743
T2
X42175Y-21102
X42175Y-23701
X42175Y-29291
X42175Y-34409
X42175Y-39921
X42175Y-45039
X42175Y-50551
X42175Y-56063
X42175Y-62283
X42175Y-67480
X42175Y-72598
X42175Y-79478
X42362Y-21732
X42362Y-22756
X42362Y-28268
X42362Y-33386
X42362Y-38898
X42362Y-44016
X42362Y-49528
X42362Y-55039
X42362Y-61339
X42362Y-66457
X42362Y-71575
X42363Y-79132
X42677Y-22126
X42677Y-23228
X42677Y-28819
X42677Y-33858
X42677Y-39370
X42677Y-44567
X42677Y-50000
X42677Y-55512
X42677Y-61811
X42677Y-67008
X42677Y-72047
X42677Y-78740
X42864Y-47165
X42913Y-46063
X42963Y-25984
X42963Y-29921
X42963Y-31496
X42963Y-35039
X42963Y-36614
X42963Y-40551
X42963Y-41969
X42963Y-45512
X42963Y-51102
X42963Y-58268
X42963Y-62913
X42963Y-64488
X42963Y-67953
X42963Y-69606
X42963Y-73150
X43150Y-43071
X43150Y-47795
X43179Y-52992
X43307Y-75039
X43415Y-32441
X43465Y-21417
X43543Y-27323
X43622Y-60472
X43701Y-32047
X43780Y-65512
X43858Y-70630
X43986Y-37874
X43990Y-24281
X44015Y-41437
X44016Y-51496
X44016Y-54094
X44043Y-68624
X44045Y-63819
X44045Y-52035
X44045Y-56556
X44045Y-57091
X44045Y-57498
X44052Y-69731
X44087Y-40622
X44094Y-20718
X44124Y-35893
X44128Y-71067
X44131Y-35305
X44144Y-73622
X44144Y-74173
X44173Y-30866
X44269Y-24875
X44301Y-46167
X44301Y-46690
X44301Y-49055
X44315Y-41692
X44380Y-23701
X44409Y-24331
X44409Y-35591
X44409Y-76457
X44478Y-45349
X44488Y-32913
X44616Y-65113
X44695Y-37468
X44793Y-63233
X44803Y-23937
X44803Y-25748
X44803Y-65984
X44803Y-71152
X44862Y-30315
X44881Y-41182
X44970Y-61032
X45010Y-43469
X45049Y-54688
X45071Y-49052
X45669Y-70157
X45719Y-38159
X45797Y-59566
X45871Y-21467
X46063Y-27953
X46063Y-33071
X46063Y-47165
X46102Y-68976
X46137Y-34011
X46137Y-50546
X46142Y-29291
X46142Y-33543
X46142Y-34409
X46142Y-38898
X46142Y-39291
X46142Y-39843
X46142Y-40472
X46142Y-44016
X46142Y-44567
X46142Y-45039
X46142Y-46063
X46142Y-46693
X46142Y-49528
X46142Y-50000
X46142Y-50945
X46142Y-51654
X46142Y-52205
X46142Y-52677
X46142Y-55039
X46142Y-55591
X46142Y-56063
X46142Y-56535
X46142Y-57087
X46142Y-57559
X46142Y-58110
X46142Y-61339
X46142Y-61811
X46142Y-62283
X46142Y-62913
X46142Y-63386
X46142Y-63858
X46142Y-64409
X46142Y-66457
X46142Y-67008
X46142Y-67480
X46142Y-67953
X46142Y-68504
X46142Y-69606
X46142Y-71575
X46142Y-72047
X46142Y-72598
X46142Y-73150
X46142Y-73858
X46142Y-74331
X46142Y-74803
X46216Y-28814
X46220Y-28346
X46220Y-30236
X46220Y-31102
X46220Y-31575
X46220Y-34882
X46220Y-36142
X46220Y-36693
X46220Y-41181
X46220Y-41654
X46220Y-45669
X46225Y-30704
X46299Y-22441
X46299Y-22913
X46299Y-23465
X46299Y-24616
X46299Y-25197
X46299Y-25669
X46299Y-35669
X46499Y-42569
X46535Y-40315
X46733Y-53937
X46821Y-67874
X46821Y-34862
X46850Y-23937
X46850Y-24331
X46850Y-73386
X46876Y-39901
X46895Y-24734
X46897Y-72950
X46899Y-42569
X46929Y-30394
X46929Y-35354
X46929Y-51811
X46929Y-68976
X46929Y-28908
X46930Y-40865
X46950Y-68347
X46961Y-23514
X46976Y-45801
X46978Y-41447
X46996Y-34510
X46998Y-56436
X46998Y-46378
X46998Y-50924
X46998Y-61948
X46998Y-67460
X46998Y-45408
X47008Y-29764
X47008Y-51339
X47008Y-55039
X47008Y-56850
X47008Y-57402
X47008Y-62362
X47008Y-62835
X47008Y-63386
X47008Y-73858
X47042Y-29326
X47087Y-36457
X47165Y-59400
X47175Y-53553
X47352Y-36887
X47480Y-31496
X47559Y-75433
X47874Y-19449
X47874Y-19921
X47874Y-52677
X47908Y-36491
X48031Y-58632
X48268Y-48110
X50276Y-23865
X50276Y-29377
X50276Y-34889
X50276Y-40401
X50276Y-45913
X50276Y-51424
X50276Y-56936
X50276Y-62448
X50276Y-67960
X50276Y-73472
X51533Y-36878
X51537Y-44774
X51811Y-68268
X51939Y-62835
X51978Y-44399
X52060Y-22018
X52113Y-37163
X52126Y-67874
X52323Y-31530
X52362Y-21575
X52441Y-62362
X52441Y-72047
X52445Y-31156
X52598Y-51811
X52652Y-36085
X52736Y-25277
X52756Y-30157
X52756Y-71575
X52805Y-42209
X52805Y-26098
X52835Y-23780
X52835Y-53543
X52835Y-70866
X52913Y-28819
X52913Y-35276
X52913Y-73386
X52913Y-73858
X52989Y-45837
X52992Y-34803
X52992Y-46299
X52992Y-46850
X52992Y-48110
X53022Y-23365
X53022Y-24331
X53022Y-25553
X53022Y-26427
X53071Y-41811
X53100Y-40435
X53100Y-34418
X53100Y-35710
X53100Y-36105
X53100Y-40833
X53100Y-50954
X53120Y-57795
X53150Y-41417
X53150Y-67874
X53150Y-68346
X53159Y-40045
X53159Y-45460
X53175Y-56436
X53175Y-61948
X53175Y-67460
X53175Y-72972
X53228Y-63386
X53228Y-68819
X53228Y-74331
X53307Y-51339
X53307Y-56929
X53307Y-57402
X53307Y-62362
X53307Y-62835
X53356Y-29291
X53356Y-29843
X53386Y-55039
X53465Y-18504
X53465Y-52490
X53746Y-18898
X53951Y-31059
X54094Y-20896
X54094Y-25354
X54213Y-31353
X54322Y-30927
X55039Y-20630
X56575Y-23865
X56575Y-29377
X56575Y-34889
X56575Y-40401
X56575Y-45913
X56575Y-51424
X56575Y-56936
X56575Y-62448
X56575Y-67960
X56575Y-73472
X58031Y-34173
X58031Y-40787
X58425Y-34094
X58425Y-40315
X58583Y-42569
X58661Y-46299
X58661Y-70600
X58721Y-30393
X58819Y-73858
X58828Y-53022
X58848Y-22913
X58848Y-23780
X58848Y-24252
X58848Y-25276
X58848Y-28661
X58927Y-70030
X58927Y-73386
X58976Y-39606
X59009Y-53770
X59055Y-45827
X59055Y-57402
X59055Y-59203
X59134Y-18268
X59134Y-51890
X59134Y-63307
X59134Y-68819
X59213Y-35276
X59213Y-64498
X59213Y-74331
X59227Y-52345
X59291Y-34803
X59291Y-62362
X59370Y-30630
X59419Y-18583
X59449Y-35827
X59449Y-41654
X59449Y-46772
X59449Y-48110
X59449Y-56850
X59449Y-58819
X59474Y-23365
X59474Y-28877
X59474Y-34389
X59474Y-39901
X59474Y-45413
X59474Y-50924
X59474Y-56436
X59474Y-61948
X59474Y-67460
X59528Y-29370
X59528Y-40315
X59528Y-40787
X59528Y-51339
X59528Y-67874
X59528Y-68346
X59528Y-77638
X59606Y-24803
X59606Y-29843
X59606Y-62913
X59606Y-64675
X59813Y-72972
X59841Y-59400
X60157Y-58632
X60157Y-78031
X60315Y-31762
X62874Y-23865
X62874Y-29377
X62874Y-34889
X62874Y-40401
X62874Y-45913
X62874Y-51424
X62874Y-56936
X62874Y-62448
X62874Y-67960
X62874Y-73472
X64488Y-33937
X64488Y-40787
X64724Y-33543
X64803Y-40315
X64840Y-28467
X64852Y-23006
X64882Y-24252
X64961Y-67953
X65118Y-28189
X65178Y-23813
X65197Y-17953
X65197Y-39291
X65197Y-52283
X65202Y-69680
X65207Y-22835
X65276Y-76329
X65480Y-69402
X65512Y-17323
X65512Y-19606
X65512Y-35276
X65512Y-38898
X65512Y-51339
X65512Y-62362
X65512Y-63937
X65512Y-74331
X65559Y-52629
X65591Y-46772
X65591Y-48110
X65591Y-34803
X65669Y-20709
X65669Y-45827
X65669Y-46299
X65669Y-56929
X65669Y-73858
X65727Y-58089
X65738Y-73360
X65773Y-50924
X65773Y-56436
X65773Y-61948
X65773Y-67460
X65797Y-34389
X65817Y-39901
X65817Y-45413
X65827Y-23386
X65827Y-28898
X65827Y-29449
X65827Y-29843
X65827Y-30394
X65827Y-40315
X65827Y-40787
X65827Y-41339
X65827Y-51890
X65827Y-62913
X65827Y-64252
X65841Y-19312
X65845Y-52899
X65906Y-35827
X65906Y-67953
X65906Y-68425
X65915Y-72877
X65984Y-58504
X66063Y-25197
X66063Y-57402
X66142Y-16929
X66220Y-77175
X66378Y-19291
X66535Y-63937
X66614Y-17402
X66614Y-58346
X66614Y-69449
X67087Y-17087
X67087Y-19291
X67559Y-19291
X67638Y-17372
X68105Y-19296
X68110Y-15827
X68110Y-17402
X68504Y-19291
X68661Y-17372
X68673Y-15028
X69134Y-15669
X69134Y-17372
X69134Y-20630
X69173Y-23865
X69173Y-29377
X69173Y-34889
X69173Y-40401
X69173Y-45913
X69173Y-51424
X69173Y-56936
X69173Y-62448
X69173Y-67960
X69173Y-73472
X69606Y-18740
X69921Y-20630
X70236Y-17087
X70236Y-19843
X70394Y-75984
X70394Y-76614
X71053Y-68451
X71339Y-76998
X71368Y-25839
X71368Y-53593
X71368Y-56076
X71368Y-57402
X71368Y-61811
X71368Y-62441
X71368Y-67257
X71368Y-73854
X71654Y-17323
X71654Y-42913
X71654Y-78110
X71890Y-35276
X71890Y-38159
X71930Y-76729
X71939Y-51065
X71939Y-52242
X71939Y-56033
X71939Y-56974
X71969Y-19213
X72018Y-68077
X72047Y-40787
X72047Y-43150
X72047Y-46772
X72047Y-48031
X72047Y-77953
X72072Y-34389
X72072Y-39901
X72072Y-45413
X72072Y-67460
X72082Y-63634
X72096Y-61952
X72096Y-62847
X72116Y-22913
X72116Y-24252
X72116Y-28856
X72116Y-56447
X72116Y-69183
X72116Y-73930
X72116Y-74356
X72126Y-29291
X72126Y-29764
X72126Y-30315
X72126Y-57874
X72168Y-38438
X72205Y-24882
X72205Y-34803
X72205Y-40315
X72205Y-45827
X72205Y-46299
X72205Y-68425
X72283Y-50443
X72286Y-51347
X72293Y-23361
X72293Y-23780
X72293Y-72936
X72309Y-50930
X72362Y-18455
X72362Y-43465
X72421Y-48154
X72441Y-75591
X72598Y-22913
X72677Y-36220
X72677Y-52756
X72754Y-48365
X72756Y-17323
X72756Y-41811
X72756Y-63780
X72756Y-69370
X72992Y-75512
X72992Y-79213
X73150Y-19213
X73228Y-18740
X73307Y-16929
X73465Y-75591
X73465Y-78898
X73622Y-19213
X73780Y-76722
X74016Y-79478
X74173Y-19213
X74252Y-15827
X74252Y-17165
X74444Y-78711
X74488Y-76900
X74646Y-19213
X74724Y-14961
X74724Y-16535
X74961Y-78740
X75019Y-76686
X75118Y-19213
X75197Y-77254
X75335Y-17077
X75354Y-15433
X75472Y-23865
X75472Y-29377
X75472Y-34889
X75472Y-40401
X75472Y-45913
X75472Y-51424
X75472Y-56936
X75472Y-62448
X75472Y-67960
X75472Y-73472
X75542Y-77065
X75669Y-19213
X75827Y-20551
X75827Y-77402
X76457Y-18346
X76535Y-78189
X77087Y-19843
X77116Y-25682
X77323Y-53701
X77402Y-15758
X77507Y-75431
X77559Y-67874
X77589Y-55669
X77589Y-57244
X77747Y-61670
X77795Y-68425
X77795Y-75699
X77851Y-15935
X77943Y-22573
X77943Y-22988
X77953Y-62913
X77953Y-66457
X77982Y-73337
X77982Y-74018
X78238Y-46759
X78238Y-49053
X78238Y-49503
X78238Y-54996
X78248Y-24115
X78268Y-40787
X78268Y-43750
X78268Y-51811
X78317Y-29764
X78317Y-30315
X78332Y-38573
X78351Y-19296
X78372Y-34389
X78372Y-39901
X78372Y-45413
X78396Y-23365
X78415Y-51258
X78425Y-35354
X78437Y-61656
X78474Y-56771
X78494Y-29188
X78504Y-23780
X78504Y-34803
X78504Y-40315
X78504Y-45827
X78504Y-46299
X78504Y-48494
X78504Y-78189
X78553Y-67291
X78553Y-72803
X78554Y-38899
X78583Y-18661
X78583Y-62362
X78583Y-76270
X78583Y-44017
X78587Y-66899
X78593Y-24920
X78593Y-50698
X78643Y-61320
X78652Y-56299
X78661Y-73858
X78671Y-28651
X78815Y-16742
X78819Y-19213
X78824Y-48723
X78976Y-52756
X79055Y-58346
X79055Y-63780
X79055Y-69291
X79213Y-36063
X79213Y-41732
X79291Y-19213
X79528Y-18632
X79528Y-79213
X79606Y-21181
X79921Y-18632
X79921Y-77323
X80000Y-78898
X80315Y-19213
X80315Y-77165
X80524Y-79478
X80551Y-17244
X80709Y-76929
X80787Y-19213
X81024Y-16496
X81162Y-79040
X81181Y-75512
X81251Y-19210
X81417Y-78740
X81575Y-16959
X81631Y-19314
X81772Y-23865
X81772Y-29377
X81772Y-34889
X81772Y-40401
X81772Y-45913
X81772Y-51424
X81772Y-56936
X81772Y-62448
X81772Y-67960
X81772Y-73472
X81860Y-76801
X81969Y-75433
X82362Y-20551
X82432Y-53593
X82520Y-17874
X82905Y-53593
X82992Y-75433
X82992Y-78189
X83258Y-75748
X83307Y-51339
X83425Y-16661
X83543Y-76457
X83622Y-51890
X83707Y-17400
X83937Y-65984
X84094Y-60157
X84094Y-70600
X84252Y-66299
X84441Y-38967
X84444Y-60344
X84488Y-35354
X84488Y-44331
X84488Y-55276
X84488Y-57323
X84567Y-40787
X84567Y-46693
X84567Y-52677
X84567Y-62362
X84567Y-62835
X84567Y-75433
X84589Y-18632
X84646Y-29291
X84646Y-29764
X84646Y-67874
X84646Y-68346
X84646Y-73386
X84646Y-73937
X84671Y-23365
X84671Y-28877
X84671Y-34389
X84671Y-39901
X84671Y-45413
X84671Y-50924
X84671Y-67460
X84671Y-72972
X84695Y-61948
X84719Y-51885
X84724Y-23780
X84724Y-24252
X84724Y-24961
X84724Y-46299
X84742Y-59400
X84769Y-51327
X84774Y-56436
X84803Y-30266
X84803Y-34803
X84803Y-40315
X84803Y-45827
X84803Y-56850
X84865Y-39144
X84881Y-53100
X84882Y-44646
X85276Y-69291
X85351Y-52864
X85354Y-58268
X85354Y-63780
X85354Y-75955
X85367Y-18632
X85433Y-36142
X85433Y-41811
X88071Y-23865
X88071Y-29377
X88071Y-34889
X88071Y-40401
X88071Y-45913
X88071Y-51424
X88071Y-56936
X88071Y-62448
X88071Y-67960
X88071Y-73472
X90000Y-17864
X90100Y-53671
X90377Y-17978
X90394Y-66614
X90410Y-53914
X90472Y-52441
X90472Y-61102
X90502Y-73937
X90551Y-68268
X90630Y-76299
X90679Y-67795
X90709Y-66929
X90787Y-57323
X90787Y-73465
X90864Y-59222
X90875Y-60915
X90896Y-61948
X90896Y-62362
X90945Y-45827
X90945Y-75955
X90968Y-39920
X90970Y-28877
X90970Y-34389
X90970Y-45413
X90970Y-56436
X90970Y-67460
X90970Y-72972
X90974Y-23365
X90994Y-50924
X91024Y-23858
X91024Y-24331
X91024Y-24961
X91024Y-29370
X91024Y-29843
X91024Y-35276
X91024Y-51417
X91102Y-30266
X91102Y-34803
X91102Y-35906
X91102Y-40315
X91102Y-40787
X91102Y-46299
X91102Y-56850
X91102Y-68898
X91102Y-74331
X91171Y-51890
X91175Y-58981
X91181Y-18898
X91181Y-44656
X91181Y-62835
X91341Y-52707
X91356Y-39374
X91388Y-53671
X91487Y-44972
X91496Y-19213
X91569Y-47431
X91654Y-58346
X91654Y-63858
X91749Y-39373
X91811Y-41811
X94370Y-23865
X94370Y-29377
X94370Y-34889
X94370Y-40401
X94370Y-45913
X94370Y-51424
X94370Y-56936
X94370Y-62448
X94370Y-67960
X94370Y-73472
X96425Y-75581
X96535Y-45827
X96614Y-46378
X96619Y-47077
X96647Y-70600
X96745Y-58829
X96772Y-76772
X96780Y-61537
X96817Y-62397
X96819Y-75581
X96850Y-35276
X96850Y-51890
X96850Y-57323
X96850Y-68346
X96929Y-40315
X97008Y-21969
X97087Y-27717
X97115Y-47256
X97165Y-33041
X97165Y-51339
X97165Y-77037
X97195Y-34389
X97195Y-61948
X97215Y-28877
X97244Y-73937
X97269Y-39901
X97269Y-50924
X97293Y-23365
X97323Y-24331
X97323Y-29764
X97323Y-40866
X97392Y-45413
X97402Y-22283
X97402Y-23780
X97402Y-24961
X97402Y-29291
X97402Y-30266
X97402Y-35906
X97402Y-41575
X97402Y-45827
X97402Y-46378
X97402Y-62835
X97417Y-76082
X97451Y-56436
X97451Y-67460
X97451Y-72972
X97480Y-28002
X97480Y-33307
X97480Y-34803
X97480Y-52283
X97480Y-56850
X97480Y-61388
X97480Y-67874
X97480Y-73386
X97500Y-69902
X97575Y-58652
X97744Y-75584
X97953Y-63780
X97953Y-69370
X98110Y-58346
X98110Y-74882
X98176Y-47510
X100669Y-23865
X100669Y-29377
X100669Y-34889
X100669Y-40401
X100669Y-45913
X100669Y-51424
X100669Y-56936
X100669Y-62448
X100669Y-67960
X100669Y-73472
X102776Y-74518
X102835Y-45827
X103071Y-74892
X103228Y-40866
X103228Y-47008
X103307Y-22598
X103386Y-57874
X103386Y-62913
X103386Y-64252
X103465Y-28238
X103465Y-51890
X103465Y-77254
X103494Y-69291
X103543Y-29764
X103566Y-30266
X103569Y-34389
X103569Y-39901
X103569Y-45413
X103569Y-50924
X103573Y-56436
X103573Y-61948
X103573Y-67460
X103573Y-72972
X103593Y-23365
X103593Y-28877
X103622Y-24252
X103622Y-35276
X103622Y-35827
X103622Y-40315
X103622Y-42205
X103622Y-52283
X103622Y-67874
X103701Y-23780
X103701Y-24961
X103701Y-29291
X103701Y-34803
X103701Y-45827
X103701Y-46378
X103701Y-56850
X103701Y-58346
X103701Y-62362
X103701Y-63858
X103701Y-73858
X103780Y-33622
X103780Y-68425
X103780Y-69685
X103780Y-73386
X103780Y-74803
X103858Y-51496
X103937Y-77431
X104016Y-28425
X104094Y-22913
X104094Y-33937
X104252Y-41732
X104252Y-47244
X104409Y-58258
X104409Y-63780
X104481Y-57402
X104488Y-69528
X104488Y-75118
X106969Y-23865
X106969Y-29377
X106969Y-34889
X106969Y-40401
X106969Y-45913
X106969Y-51424
X106969Y-56936
X106969Y-62448
X106969Y-67960
X106969Y-73472
X108425Y-65276
X108504Y-64252
X108504Y-72126
X108819Y-60630
X108819Y-61467
X108895Y-62225
X108898Y-52283
X108898Y-62835
X108898Y-63386
X108898Y-63858
X108898Y-66063
X108898Y-69291
X108901Y-66856
X108903Y-66462
X108956Y-61836
X108976Y-57874
X108976Y-58346
X108976Y-73622
X108976Y-74094
X109131Y-70856
X109370Y-31732
X109370Y-75039
X109941Y-57485
X110000Y-26378
X110059Y-43688
X110157Y-37195
X110158Y-57038
X110187Y-39469
X110236Y-69606
X110236Y-75039
X110240Y-44985
X110251Y-44101
X110258Y-73479
X110267Y-44494
X110278Y-45452
X110295Y-48790
X110295Y-49262
X110296Y-52185
X110315Y-22756
X110315Y-23228
X110315Y-23701
X110315Y-24173
X110315Y-25118
X110315Y-25591
X110315Y-28110
X110315Y-28583
X110315Y-29055
X110315Y-29528
X110315Y-30000
X110315Y-30472
X110315Y-30945
X110315Y-33701
X110315Y-34173
X110315Y-34646
X110315Y-35118
X110315Y-35591
X110315Y-36063
X110315Y-36614
X110315Y-38504
X110315Y-38976
X110315Y-39921
X110315Y-40394
X110315Y-40866
X110315Y-41339
X110315Y-41969
X110315Y-45906
X110315Y-46378
X110315Y-47087
X110315Y-59055
X110315Y-61181
X110315Y-64331
X110315Y-69055
X110320Y-24651
X110361Y-56651
X110394Y-49764
X110472Y-50866
X110472Y-51339
X110472Y-51811
X110472Y-55984
X110472Y-68189
X110472Y-71339
X110502Y-75354
X110551Y-55118
X110551Y-55591
X110573Y-69951
X110581Y-39449
X110588Y-72859
X110630Y-27244
X110787Y-67717
X110787Y-72126
X110787Y-72520
X110787Y-75906
X110826Y-70679
X110866Y-37874
X110866Y-57559
X110945Y-22756
X110945Y-25748
X110945Y-31969
X110945Y-33041
X110945Y-33701
X110945Y-34803
X110945Y-50000
X110945Y-50551
X110945Y-61181
X110945Y-62362
X110945Y-66299
X110945Y-67323
X110994Y-71791
X111024Y-22126
X111024Y-23780
X111024Y-34331
X111024Y-66929
X111102Y-56378
X111102Y-76299
X111121Y-37443
X111152Y-38268
X111152Y-38898
X111152Y-39921
X111152Y-43365
X111152Y-43859
X111152Y-44608
X111152Y-45119
X111152Y-49407
X111181Y-54331
X111230Y-27559
X111230Y-28189
X111230Y-28819
X111230Y-29291
X111339Y-64803
X111339Y-70000
X111368Y-42283
X111417Y-47480
X111496Y-53071
X111575Y-18346
X111575Y-31811
X111575Y-59370
X111654Y-32756
X111654Y-65512
X111654Y-77717
X111732Y-54882
X111732Y-60394
X111811Y-17717
X111998Y-70926
X111998Y-72519
X112047Y-23307
X112077Y-48960
X112126Y-16535
X112126Y-35827
X112205Y-24803
X112205Y-30315
X112205Y-40945
X112205Y-46063
X112205Y-51575
X112205Y-57874
X112215Y-63386
X112218Y-78874
X112234Y-68504
X112234Y-73622
X112392Y-41417
X112441Y-30787
X112441Y-52047
X112441Y-68976
X112441Y-74016
X112441Y-79198
X112453Y-16959
X112490Y-25276
X112490Y-36299
X112490Y-63858
X112500Y-58346
X112549Y-46535
X112677Y-67953
X112682Y-45507
X112726Y-17480
X112726Y-24252
X112726Y-29764
X112726Y-35276
X112726Y-40394
X112726Y-51024
X112726Y-57323
X112726Y-62835
X112726Y-73071
X112726Y-79528
T3
X82372Y-34398
X82372Y-35580
X88671Y-50934
X88671Y-52115
X94970Y-39910
X94970Y-41091
X107569Y-28887
X107569Y-30068
X101269Y-23375
X101269Y-24556
X76072Y-56446
X76072Y-57627
X57175Y-61957
X57175Y-63139
X76072Y-61957
X76072Y-63139
X69773Y-45422
X69773Y-46603
X101269Y-34398
X101269Y-35580
X76072Y-45422
X76072Y-46603
X50876Y-61957
X50876Y-63139
X107569Y-39910
X107569Y-41091
X107569Y-45422
X107569Y-46603
X88671Y-34398
X88671Y-35580
X94970Y-72981
X94970Y-74162
X63474Y-45422
X63474Y-46603
X107569Y-34398
X107569Y-35580
X50876Y-34398
X50876Y-35580
X101269Y-45422
X101269Y-46603
X101269Y-39910
X101269Y-41091
X101269Y-67469
X101269Y-68650
X88671Y-23375
X88671Y-24556
X101269Y-61957
X101269Y-63139
X94970Y-61957
X94970Y-63139
X50876Y-56446
X50876Y-57627
X107569Y-67469
X107569Y-68650
X82372Y-72981
X82372Y-74162
X57175Y-39910
X57175Y-41091
X88671Y-61957
X88671Y-63139
X57175Y-50934
X57175Y-52115
X63474Y-50934
X63474Y-52115
X88671Y-56446
X88671Y-57627
X94970Y-34398
X94970Y-35580
X57175Y-34398
X57175Y-35580
X50876Y-50934
X50876Y-52115
X63474Y-56446
X63474Y-57627
X57175Y-28887
X57175Y-30068
X82372Y-67469
X82372Y-68650
X63474Y-23375
X63474Y-24556
X107569Y-61957
X107569Y-63139
X50876Y-23375
X50876Y-24556
X50876Y-72981
X50876Y-74162
X69773Y-72981
X69773Y-74162
X94970Y-67469
X94970Y-68650
X63474Y-28887
X63474Y-30068
X50876Y-67469
X50876Y-68650
X88671Y-72981
X88671Y-74162
X94970Y-50934
X94970Y-52115
X63474Y-72981
X63474Y-74162
X76072Y-39910
X76072Y-41091
X57175Y-45422
X57175Y-46603
X57175Y-56446
X57175Y-57627
X76072Y-34398
X76072Y-35580
X82372Y-28887
X82372Y-30068
X94970Y-28887
X94970Y-30068
X50876Y-45422
X50876Y-46603
X69773Y-28887
X69773Y-30068
X101269Y-50934
X101269Y-52115
X69773Y-56446
X69773Y-57627
X50876Y-39910
X50876Y-41091
X57175Y-72981
X57175Y-74162
X50876Y-28887
X50876Y-30068
X88671Y-28887
X88671Y-30068
X88671Y-39910
X88671Y-41091
X57175Y-23375
X57175Y-24556
X94970Y-23375
X94970Y-24556
X101269Y-28887
X101269Y-30068
X63474Y-34398
X63474Y-35580
X76072Y-67469
X76072Y-68650
X63474Y-67469
X63474Y-68650
X82372Y-39910
X82372Y-41091
X88671Y-45422
X88671Y-46603
X69773Y-39910
X69773Y-41091
X76072Y-72981
X76072Y-74162
X107569Y-56446
X107569Y-57627
X76072Y-28887
X76072Y-30068
X57175Y-67469
X57175Y-68650
X107569Y-72981
X107569Y-74162
X82372Y-56446
X82372Y-57627
X69773Y-50934
X69773Y-52115
X63474Y-39910
X63474Y-41091
X94970Y-45422
X94970Y-46603
X101269Y-72981
X101269Y-74162
X88671Y-67469
X88671Y-68650
X69773Y-23375
X69773Y-24556
X94970Y-56446
X94970Y-57627
X107569Y-50934
X107569Y-52115
X82372Y-23375
X82372Y-24556
X82372Y-45422
X82372Y-46603
X101269Y-56446
X101269Y-57627
X107569Y-23375
X107569Y-24556
X76072Y-23375
X76072Y-24556
X63474Y-61957
X63474Y-63139
X69773Y-61957
X69773Y-63139
X82372Y-50934
X82372Y-52115
X76072Y-50934
X76072Y-52115
X69773Y-67469
X69773Y-68650
X82372Y-61957
X82372Y-63139
X69773Y-34398
X69773Y-35580
T4
X48031Y-8961
X48031Y-14961
X49031Y-8961
X49031Y-14961
X50031Y-8961
X50031Y-14961
X51031Y-8961
X51031Y-14961
X52031Y-8961
X52031Y-14961
X53031Y-8961
X53031Y-14961
X54031Y-8961
X54031Y-14961
X55031Y-8961
X55031Y-14961
X56031Y-8961
X56031Y-14961
X57031Y-8961
X57031Y-14961
X58031Y-8961
X58031Y-14961
X59031Y-8961
X59031Y-14961
X60031Y-8961
X60031Y-14961
X61031Y-8961
X61031Y-14961
X62031Y-8961
X62031Y-14961
T5
X87638Y-10205
X87638Y-14205
X91638Y-10205
X91638Y-14205
X95638Y-10205
X95638Y-14205
X99638Y-10205
X99638Y-14205
X103638Y-10205
X103638Y-14205
X107638Y-10205
X107638Y-14205
T0
M30
